<svg version="1" xmlns="http://www.w3.org/2000/svg" width="1365.333" height="1365.333" viewBox="0 0 1024.000000 1024.000000"><path d="M522.7 111.7c-.1 0-6.7.4-14.7.7-18.2.8-29.4 1.8-37 3.1-1.4.3-4.5.7-7 1-4.1.5-16.7 2.7-23 4-1.4.3-3.6.7-5 .9-6 .9-33 7.9-50.5 13.1-10.4 3.1-22.6 6.7-27 8-4.4 1.3-27.6 8.3-51.5 15.5-64.6 19.5-125 37.7-129 38.8-1.9.6-11.6 3.5-21.5 6.5s-18.9 5.7-20 6c-1.1.3-10.3 3-20.5 6.1-10.2 3.1-22.9 7-28.3 8.6-5.3 1.6-14.1 4.3-19.5 5.9-5.3 1.7-11 3.3-12.7 3.7-1.6.4-3.6 1.2-4.4 1.8-.8.6-1.5.9-1.5.7-.1-.3-3.2.4-6.9 1.4-6.5 1.8-6.8 1.9-6.2 4.4.8 3.2.2 2.9 6 3.6 22.7 2.9 43 10.1 56.3 19.9 16.4 12 29.6 35.7 40.7 73.1 1.5 4.9 3 9.7 3.3 10.5.3.8.6 1.9.7 2.5.3 1 4.5 15.2 9.1 30 1.3 4.4 2.7 9 2.9 10.2.3 1.2 1 3.5 1.6 5 .6 1.6 1.2 3.5 1.4 4.3.3 1.6 13.1 44.3 19 63.5 1.9 6 8.1 27 14 46.5 5.8 19.5 11 36.8 11.5 38.5 2.3 7 9.3 30.2 10 33 1.3 4.6 5.7 19.2 18.5 61.5 6.4 21.2 11.8 39.2 12 40 .2.8 5 16.6 10.5 35 5.6 18.4 10.4 34.4 10.7 35.5.3 1.1.7 2.7 1 3.5.3.8.7 1.9.8 2.5.6 2.3 17.7 59.2 18.5 61.5 1 3 5.9 19.3 6.5 21.7.3 1 1.8 6.7 3.4 12.8 1.6 6 3.2 13.1 3.5 15.7.4 2.6 1 6.8 1.5 9.3.5 2.5.9 10.3.9 17.4 0 10.1-.5 14.5-2.4 21.8-5.4 20.8-17 37.9-37.9 55.6-2.6 2.2-2.8 2.7-1.8 5l1.2 2.5 5.8-2c3.2-1.1 6.5-2.1 7.4-2.3.9-.2 6.3-1.8 12-3.5s11.1-3.3 11.9-3.5c.8-.2 12.8-3.8 26.5-8 13.8-4.2 25.7-7.8 26.5-8 .8-.2 4.4-1.3 7.9-2.4 3.5-1.2 7.4-2.3 8.5-2.6 1.2-.2 15.6-4.5 32.1-9.6 30.9-9.4 36.2-10.9 43-12.9 2.2-.6 9-2.7 15-4.5 14-4.3 51.7-15.7 53-15.9 1.5-.4 15.8-4.7 17.5-5.3.8-.3 2.1-.7 2.8-.9.7-.1 5.9-1.7 11.5-3.4s13.4-4.1 17.2-5.2c3.9-1.1 8.1-2.4 9.5-2.8 1.4-.5 7-2.2 12.5-3.9 5.5-1.6 15.4-4.6 22-6.7 6.6-2 13.4-4 15-4.4 1.7-.4 6.4-2 10.5-3.4 4.1-1.5 8-2.8 8.5-2.9 6.7-2 28.8-10.6 30-11.8.5-.5 1.5-.9 2.2-.9 2.1 0 29.5-13.7 42.1-21 6.2-3.6 12.1-7 13.1-7.5 9.1-5.2 41.7-28.7 48.1-34.7 1.4-1.2 4.3-3.8 6.5-5.7 5.6-4.7 17.8-16.6 25.5-24.8 39.4-41.9 65.4-90.5 82-153.3 1.5-5.5 4.9-22.1 5.5-26.5.3-2.3.7-5 .9-6.2 3.8-19.5 4.9-67.3 2.1-89.3-.2-1.9-.7-6.4-1-10-.3-3.6-.8-7.2-1-8-.2-.8-.7-3.5-1-6-.6-4.7-2.1-13.5-3-18.3-.3-1.5-.7-3.9-1-5.5-.3-1.5-1-4.7-1.5-7.2-.6-2.5-1.2-5.5-1.4-6.6-2.8-15.1-16.3-58.7-24.6-79.4-19.7-49.3-45.6-91.4-77.5-125.9-12.6-13.5-25.9-26-38.5-35.9-4.7-3.7-8.9-7-9.5-7.5-4.7-3.8-16.4-11.6-25.4-17.1-43.1-25.8-88.6-40.5-146.1-47-6.3-.8-39.9-2.3-40.3-1.9zm-93 58.8c51.4 6.4 88.5 35.7 127.8 101 6.1 10.2 23.1 43.4 28.2 55 14.5 33.1 26.5 64.7 40.1 105 3.3 9.8 13.1 40.7 13.8 43.4.2.9 1.2 4.5 2.3 8.1 4.3 14 8.4 28 11.2 38.5 5.1 18.8 7 25.9 7.5 28 .2 1.1 1.5 6.7 3 12.5 3.9 16 5.2 21.8 7 30 1.7 8.4 5.3 26.9 6 31.5.3 1.6 1.1 6.8 1.9 11.5.8 4.7 1.7 10.7 2 13.5.5 4.5.8 7.7 2 17 2.3 18 2.3 58.3 0 69-.3 1.1-.7 3.6-.9 5.5-2.1 14.3-7.7 31.9-14.2 43.9-2.5 4.6-5 8.8-5.5 9.5-.5.6-3.2 4-5.9 7.5-12.3 15.7-30.8 29.8-54.5 41.4-6.9 3.4-29.1 12.5-32 13.2-.5.1-1.7.5-2.5.8-1.7.7-24.9 7.7-25.5 7.7-.4 0-2.3-5.9-13.6-43.5-4.4-14.9-10.8-36-14.1-47-3.3-11-7.3-24.3-8.8-29.5-1.6-5.2-6.5-21.7-11-36.5-4.5-14.9-8.6-28.4-9-30-1.1-3.8-5.2-17.7-12.5-41.5-3.1-10.2-5.9-19.4-6.2-20.5-.3-1.1-1.5-5.4-2.8-9.5-6.2-20.1-44.4-146.8-44.9-149-.2-.8-5.4-18.2-11.6-38.5-6.1-20.4-11.7-39-12.4-41.5-1.7-6-5-16.9-13.2-43.5-3.7-12.1-7.5-24.9-8.5-28.5-1.7-6.2-5.2-17.8-18.9-62.9-3.4-11.3-6.4-21.2-6.6-22-.2-.9-1.4-5.2-2.8-9.6-6.7-21.9-7.6-25-7.6-26.3 0-.9.3-1.3.6-1 .3.4 2.2-.1 4.2-.9s3.7-1.4 3.7-1.3c0 .1 3.2-.7 7-1.8 15.8-4.7 32.5-8 45.5-8.9 4.1-.3 7.6-.6 7.7-.7.5-.5 18.7.2 24 .9z"/></svg>