<svg width="1044" height="185" viewBox="0 0 1044 185" fill="none" xmlns="http://www.w3.org/2000/svg">
<path fill-rule="evenodd" clip-rule="evenodd" d="M167 0.5C167 0.811 164.167 1 159.5 1C154.833 1 152 1.189 152 1.5C152 1.8 150 2 147 2C144 2 142 2.2 142 2.5C142 2.778 140.666 3 139 3C137.334 3 136 3.222 136 3.5C136 3.778 134.666 4 133 4C131.334 4 130 4.222 130 4.5C130 4.775 129.1 5 128 5C126.9 5 126 5.225 126 5.5C126 5.775 125.1 6 124 6C122.9 6 122 6.225 122 6.5C122 6.775 120.875 7 119.5 7C118.125 7 117 7.225 117 7.5C117 7.775 116.325 8 115.5 8C114.675 8 114 8.225 114 8.5C114 8.775 113.646 9 113.214 9C112.298 9 111 10.173 111 11C111 11.941 112.633 13.3515 112.876 12.6205C112.99 12.279 113.515 12 114.042 12C114.569 12 115 11.775 115 11.5C115 11.225 115.9 11 117 11C118.1 11 119 10.775 119 10.5C119 10.1795 123.591 10 131.773 10H144.546L145.773 11.2275C147.015 12.47 147.416 14 146.5 14C146.225 14 146 14.9 146 16C146 17.1 145.775 18 145.5 18C145.225 18 145 18.45 145 19C145 19.55 144.775 20 144.5 20C144.225 20 144 20.45 144 21C144 21.55 143.775 22 143.5 22C143.225 22 143 22.4005 143 22.8895C143 23.379 142.55 24.1035 142 24.5C141.45 24.8965 141 25.621 141 26.1105C141 26.5995 140.775 27 140.5 27C140.225 27 140 27.4005 140 27.8895C140 28.379 139.55 29.1035 139 29.5C138.45 29.8965 138 30.531 138 30.91C138 31.2885 137.325 32.2295 136.5 33C135.675 33.7705 135 34.666 135 34.99C135 35.3135 134.1 36.443 133 37.5C131.9 38.557 131 39.6745 131 39.9835C131 40.548 128.783 43 128.273 43C128.123 43 128 40.3 128 37C128 33.3335 128.194 31 128.5 31C128.81 31 129 28.3335 129 24C129 17.3335 129.048 17 130 17C130.666 17 131 16.6665 131 16C131 15.3335 130.666 15 130 15C129.26 15 129 14.6665 129 13.7145C129 12.376 127.987 11 127 11C125.125 11 125 12.019 125 27.2145C125 36.738 124.822 42 124.5 42C124.218 42 124 43.4275 124 45.2825C124 48.5635 123.999 48.566 121.5 51C120.125 52.3395 119 53.6925 119 54.0065C119 54.321 118.1 55.443 117 56.5C115.9 57.557 115 58.682 115 59C115 59.318 114.1 60.443 113 61.5C111.9 62.557 111 63.679 111 63.9935C111 64.3075 109.875 65.6605 108.5 67C107.125 68.3395 106 69.687 106 69.995C106 70.3035 104.65 71.8805 103 73.5C101.35 75.1195 100 76.6995 100 77.0115C100 77.3235 99.1 78.443 98 79.5C96.9 80.557 96 81.6865 96 82.01C96 82.334 95.325 83.2295 94.5 84C93.675 84.7705 93 85.7115 93 86.09C93 86.469 92.55 87.1035 92 87.5C91.45 87.8965 91 88.621 91 89.1105C91 89.5995 90.775 90 90.5 90C90.225 90 90 90.4005 90 90.8895C90 91.379 89.55 92.1035 89 92.5C88.45 92.8965 88 93.621 88 94.1105C88 94.5995 87.775 95 87.5 95C87.225 95 87 95.4005 87 95.8895C87 96.379 86.55 97.1035 86 97.5C85.45 97.8965 85 98.621 85 99.1105C85 99.5995 84.775 100 84.5 100C84.225 100 84 100.45 84 101C84 101.55 83.775 102 83.5 102C83.225 102 83 102.45 83 103C83 103.55 82.775 104 82.5 104C82.225 104 82 104.675 82 105.5C82 106.325 81.775 107 81.5 107C81.225 107 81 108.125 81 109.5C81 110.875 80.775 112 80.5 112C80.225 112 80 113.125 80 114.5C80 115.875 80.225 117 80.5 117C80.775 117 81 117.573 81 118.273C81 119.654 83.0055 122 84.1855 122C84.5875 122 85.048 122.282 85.2085 122.625C85.4415 123.125 85.5585 123.125 85.7915 122.625C85.952 122.282 86.5145 122 87.0415 122C87.569 122 88 121.775 88 121.5C88 121.225 88.3415 121 88.7595 121C89.629 121 96 114.806 96 113.96C96 113.653 96.675 112.771 97.5 112C98.325 111.229 99 110.289 99 109.91C99 109.531 99.45 108.896 100 108.5C100.55 108.104 101 107.428 101 107C101 106.572 101.45 105.896 102 105.5C102.55 105.104 103 104.428 103 104C103 103.572 103.45 102.896 104 102.5C104.55 102.104 105 101.379 105 100.89C105 100.401 105.225 100 105.5 100C105.775 100 106 99.5995 106 99.1105C106 98.621 106.45 97.8965 107 97.5C107.55 97.1035 108 96.379 108 95.8895C108 95.4005 108.225 95 108.5 95C108.775 95 109 94.55 109 94C109 93.45 109.225 93 109.5 93C109.775 93 110 92.55 110 92C110 91.45 110.225 91 110.5 91C110.775 91 111 90.55 111 90C111 89.45 111.225 89 111.5 89C111.775 89 112 88.55 112 88C112 87.45 112.225 87 112.5 87C112.775 87 113 86.55 113 86C113 85.45 113.225 85 113.5 85C113.775 85 114 84.55 114 84C114 83.45 114.225 83 114.5 83C114.775 83 115 82.55 115 82C115 81.45 115.225 81 115.5 81C115.775 81 116 80.55 116 80C116 79.45 116.225 79 116.5 79C116.775 79 117 78.55 117 78C117 77.45 117.225 77 117.5 77C117.775 77 118 76.325 118 75.5C118 74.675 118.225 74 118.5 74C118.775 74 119 73.55 119 73C119 72.45 119.225 72 119.5 72C119.775 72 120 71.325 120 70.5C120 69.675 120.225 69 120.5 69C120.775 69 121 68.55 121 68C121 67.45 121.225 67 121.5 67C121.775 67 122 66.325 122 65.5C122 64.675 122.225 64 122.5 64C122.775 64 123 63.325 123 62.5C123 61.675 123.225 61 123.5 61C123.775 61 124 60.325 124 59.5C124 58.675 124.225 58 124.5 58C124.775 58 125 57.1 125 56C125 54.9 125.225 54 125.5 54C125.775 54 126 53.195 126 52.211C126 50.777 126.398 50.04 128 48.5C129.1 47.443 130 46.321 130 46.0065C130 45.6925 131.125 44.3395 132.5 43C133.875 41.6605 135 40.303 135 39.983C135 39.663 135.675 38.7705 136.5 38C137.325 37.2295 138 36.3295 138 36C138 35.6705 138.675 34.7705 139.5 34C140.325 33.2295 141 32.2885 141 31.91C141 31.531 141.45 30.8965 142 30.5C142.55 30.1035 143 29.379 143 28.8895C143 28.4005 143.225 28 143.5 28C143.775 28 144 27.5995 144 27.1105C144 26.621 144.45 25.8965 145 25.5C145.55 25.1035 146 24.379 146 23.8895C146 23.4005 146.225 23 146.5 23C146.775 23 147 22.55 147 22C147 21.45 147.225 21 147.5 21C147.775 21 148 20.325 148 19.5C148 18.675 148.225 18 148.5 18C148.775 18 149 17.325 149 16.5C149 15.675 149.225 15 149.5 15C149.775 15 150 14.2065 150 13.237C150 10.413 146.314 7 143.263 7C142.019 7 141 6.775 141 6.5C141 6.225 141.675 6 142.5 6C143.325 6 144 5.775 144 5.5C144 5.2 146 5 149 5C152 5 154 4.8 154 4.5C154 4.184 157.5 4 163.5 4C169.5 4 173 3.816 173 3.5C173 3.1825 176.833 3 183.5 3C190.167 3 194 3.1825 194 3.5C194 3.8095 196.667 4 201 4C205.333 4 208 4.1905 208 4.5C208 4.778 209.334 5 211 5C212.666 5 214 5.222 214 5.5C214 5.775 215.125 6 216.5 6C217.875 6 219 6.225 219 6.5C219 6.775 219.675 7 220.5 7C221.325 7 222 7.225 222 7.5C222 7.775 222.675 8 223.5 8C224.325 8 225 8.225 225 8.5C225 8.775 225.675 9 226.5 9C227.325 9 228 9.225 228 9.5C228 9.775 228.45 10 229 10C229.55 10 230 10.225 230 10.5C230 10.775 230.45 11 231 11C231.55 11 232 11.225 232 11.5C232 11.775 232.45 12 233 12C233.55 12 234 12.225 234 12.5C234 12.775 234.45 13 235 13C235.55 13 236 13.225 236 13.5C236 13.775 236.45 14 237 14C237.55 14 238 14.225 238 14.5C238 14.775 238.4 15 238.889 15C239.379 15 240.104 15.45 240.5 16C240.896 16.55 241.621 17 242.111 17C242.6 17 243 17.225 243 17.5C243 17.775 243.4 18 243.889 18C244.379 18 245.104 18.45 245.5 19C245.896 19.55 246.531 20 246.91 20C247.289 20 248.229 20.675 249 21.5C249.771 22.325 250.651 23 250.957 23C251.681 23 262 33.319 262 34.0435C262 34.349 262.675 35.2295 263.5 36C264.325 36.7705 265 37.761 265 38.2005C265 38.6405 265.225 39 265.5 39C265.775 39 266 39.45 266 40C266 40.55 266.225 41 266.5 41C266.775 41 267 41.45 267 42C267 42.55 267.225 43 267.5 43C267.775 43 268 43.45 268 44C268 44.55 268.225 45 268.5 45C268.775 45 269 45.9 269 47C269 48.1 269.225 49 269.5 49C269.803 49 270 51.1665 270 54.5C270 57.8335 269.803 60 269.5 60C269.225 60 269 60.675 269 61.5C269 62.325 268.775 63 268.5 63C268.225 63 268 63.45 268 64C268 64.55 267.775 65 267.5 65C267.225 65 267 65.45 267 66C267 66.55 266.775 67 266.5 67C266.225 67 266 67.352 266 67.7825C266 68.213 264.875 69.6605 263.5 71C262.125 72.3395 261 73.691 261 74.0035C261 74.732 259.739 76 259.014 76C258.708 76 256.677 77.8 254.5 80C252.323 82.2 250.286 84 249.972 84C249.658 84 248.771 84.675 248 85.5C247.229 86.325 246.329 87 246 87C245.671 87 244.771 87.675 244 88.5C243.229 89.325 242.329 90 242 90C241.671 90 240.771 90.675 240 91.5C239.229 92.325 238.289 93 237.91 93C237.531 93 236.896 93.45 236.5 94C236.104 94.55 235.428 95 235 95C234.572 95 233.896 95.45 233.5 96C233.104 96.55 232.428 97 232 97C231.572 97 230.896 97.45 230.5 98C230.104 98.55 229.428 99 229 99C228.572 99 227.896 99.45 227.5 100C227.104 100.55 226.428 101 226 101C225.572 101 224.896 101.45 224.5 102C224.104 102.55 223.379 103 222.889 103C222.4 103 222 103.225 222 103.5C222 103.775 221.55 104 221 104C220.45 104 220 104.225 220 104.5C220 104.775 219.6 105 219.111 105C218.621 105 217.896 105.45 217.5 106C217.104 106.55 216.379 107 215.889 107C215.4 107 215 107.225 215 107.5C215 107.775 214.55 108 214 108C213.45 108 213 108.225 213 108.5C213 108.775 212.55 109 212 109C211.45 109 211 109.225 211 109.5C211 109.775 210.55 110 210 110C209.45 110 209 110.225 209 110.5C209 110.775 208.6 111 208.111 111C207.621 111 206.896 111.45 206.5 112C206.104 112.55 205.379 113 204.889 113C204.4 113 204 113.225 204 113.5C204 113.775 203.55 114 203 114C202.45 114 202 114.225 202 114.5C202 114.775 201.55 115 201 115C200.45 115 200 115.225 200 115.5C200 115.775 199.55 116 199 116C198.45 116 198 116.225 198 116.5C198 116.775 197.325 117 196.5 117C195.675 117 195 117.225 195 117.5C195 117.775 194.55 118 194 118C193.45 118 193 118.225 193 118.5C193 118.775 192.55 119 192 119C191.45 119 191 119.225 191 119.5C191 119.775 190.55 120 190 120C189.45 120 189 120.225 189 120.5C189 120.775 188.55 121 188 121C187.45 121 187 121.225 187 121.5C187 121.775 186.325 122 185.5 122C184.675 122 184 122.225 184 122.5C184 122.775 183.55 123 183 123C182.45 123 182 123.225 182 123.5C182 123.775 181.55 124 181 124C180.45 124 180 124.225 180 124.5C180 124.775 179.325 125 178.5 125C177.675 125 177 125.225 177 125.5C177 125.775 176.55 126 176 126C175.45 126 175 126.225 175 126.5C175 126.775 174.55 127 174 127C173.45 127 173 127.225 173 127.5C173 127.775 172.325 128 171.5 128C170.675 128 170 128.225 170 128.5C170 128.778 168.666 129 167 129C165.334 129 164 129.222 164 129.5C164 129.775 163.55 130 163 130C162.45 130 162 129.775 162 129.5C162 129.225 161.325 129 160.5 129C159.675 129 159 128.775 159 128.5C159 128.225 158.646 128 158.214 128C156.86 128 156 126.649 156 124.525C156 122.424 160.417 117 162.129 117C162.486 117 163.104 116.55 163.5 116C163.896 115.45 164.572 115 165 115C165.428 115 166.104 114.55 166.5 114C166.896 113.45 167.572 113 168 113C168.428 113 169.104 112.55 169.5 112C169.896 111.45 170.621 111 171.111 111C171.6 111 172 110.775 172 110.5C172 110.225 172.45 110 173 110C173.55 110 174 109.775 174 109.5C174 109.225 174.45 109 175 109C175.55 109 176 108.775 176 108.5C176 108.225 176.45 108 177 108C177.55 108 178 107.775 178 107.5C178 107.225 178.45 107 179 107C179.55 107 180 106.775 180 106.5C180 106.225 180.45 106 181 106C181.55 106 182 105.775 182 105.5C182 105.225 182.45 105 183 105C183.55 105 184 104.775 184 104.5C184 104.225 184.45 104 185 104C185.55 104 186 103.775 186 103.5C186 103.225 186.45 103 187 103C187.55 103 188 102.775 188 102.5C188 102.225 188.45 102 189 102C189.55 102 190 101.775 190 101.5C190 101.225 190.45 101 191 101C191.55 101 192 100.775 192 100.5C192 100.225 192.45 100 193 100C193.55 100 194 99.775 194 99.5C194 99.225 194.45 99 195 99C195.55 99 196 98.775 196 98.5C196 98.225 196.675 98 197.5 98C198.325 98 199 97.775 199 97.5C199 97.225 199.45 97 200 97C200.55 97 201 96.775 201 96.5C201 96.225 201.45 96 202 96C202.55 96 203 95.775 203 95.5C203 95.225 203.675 95 204.5 95C205.325 95 206 94.775 206 94.5C206 94.225 206.45 94 207 94C207.55 94 208 93.775 208 93.5C208 93.225 208.675 93 209.5 93C210.325 93 211 92.775 211 92.5C211 92.225 211.45 92 212 92C212.55 92 213 91.775 213 91.5C213 91.225 213.675 91 214.5 91C215.325 91 216 90.775 216 90.5C216 90.225 216.45 90 217 90C217.55 90 218 89.775 218 89.5C218 89.225 218.675 89 219.5 89C220.325 89 221 88.775 221 88.5C221 88.225 221.45 88 222 88C222.55 88 223 87.775 223 87.5C223 87.225 223.675 87 224.5 87C225.325 87 226 86.775 226 86.5C226 86.225 226.675 86 227.5 86C228.325 86 229 85.775 229 85.5C229 85.225 229.45 85 230 85C230.55 85 231 84.775 231 84.5C231 84.225 231.675 84 232.5 84C233.325 84 234 83.775 234 83.5C234 83.225 234.45 83 235 83C235.55 83 236 82.775 236 82.5C236 82.225 236.45 82 237 82C237.55 82 238 81.775 238 81.5C238 81.225 238.45 81 239 81C239.666 81 240 80.6665 240 80C240 79.348 239.667 79 239.042 79C238.515 79 237.952 78.719 237.792 78.375C237.559 77.875 237.441 77.875 237.208 78.375C237.016 78.7865 235.736 79 233.458 79C231.486 79 230 79.215 230 79.5C230 79.775 228.875 80 227.5 80C226.125 80 225 80.225 225 80.5C225 80.775 224.1 81 223 81C221.9 81 221 81.225 221 81.5C221 81.775 220.325 82 219.5 82C218.675 82 218 82.225 218 82.5C218 82.775 217.325 83 216.5 83C215.675 83 215 83.225 215 83.5C215 83.775 214.325 84 213.5 84C212.675 84 212 84.225 212 84.5C212 84.775 211.325 85 210.5 85C209.675 85 209 85.225 209 85.5C209 85.775 208.325 86 207.5 86C206.675 86 206 86.225 206 86.5C206 86.775 205.325 87 204.5 87C203.675 87 203 87.225 203 87.5C203 87.775 202.55 88 202 88C201.45 88 201 88.225 201 88.5C201 88.775 200.325 89 199.5 89C198.675 89 198 89.225 198 89.5C198 89.775 197.325 90 196.5 90C195.675 90 195 90.225 195 90.5C195 90.775 194.55 91 194 91C193.45 91 193 91.225 193 91.5C193 91.775 192.325 92 191.5 92C190.675 92 190 92.225 190 92.5C190 92.775 189.55 93 189 93C188.45 93 188 93.225 188 93.5C188 93.775 187.325 94 186.5 94C185.675 94 185 94.225 185 94.5C185 94.775 184.55 95 184 95C183.45 95 183 95.225 183 95.5C183 95.775 182.325 96 181.5 96C180.675 96 180 96.225 180 96.5C180 96.775 179.55 97 179 97C178.45 97 178 97.225 178 97.5C178 97.775 177.325 98 176.5 98C175.675 98 175 98.225 175 98.5C175 98.775 174.55 99 174 99C173.45 99 173 99.225 173 99.5C173 99.775 172.325 100 171.5 100C170.675 100 170 100.225 170 100.5C170 100.775 169.55 101 169 101C168.45 101 168 101.225 168 101.5C168 101.775 167.325 102 166.5 102C165.675 102 165 102.225 165 102.5C165 102.775 164.55 103 164 103C163.45 103 163 103.225 163 103.5C163 103.775 162.325 104 161.5 104C160.675 104 160 104.225 160 104.5C160 104.775 159.55 105 159 105C158.45 105 158 105.225 158 105.5C158 105.775 157.325 106 156.5 106C155.675 106 155 106.225 155 106.5C155 106.775 154.55 107 154 107C153.45 107 153 107.225 153 107.5C153 107.775 152.55 108 152 108C151.45 108 151 108.225 151 108.5C151 108.775 150.55 109 150 109C149.45 109 149 109.225 149 109.5C149 109.775 148.325 110 147.5 110C146.675 110 146 110.225 146 110.5C146 110.775 145.55 111 145 111C144.45 111 144 111.225 144 111.5C144 111.775 143.55 112 143 112C142.45 112 142 112.225 142 112.5C142 112.775 141.55 113 141 113C140.45 113 140 113.225 140 113.5C140 113.775 139.55 114 139 114C138.45 114 138 114.225 138 114.5C138 114.775 137.55 115 137 115C136.45 115 136 115.225 136 115.5C136 115.775 135.55 116 135 116C134.45 116 134 116.225 134 116.5C134 116.775 133.55 117 133 117C132.45 117 132 117.225 132 117.5C132 117.775 131.55 118 131 118C130.45 118 130 118.225 130 118.5C130 118.775 129.55 119 129 119C128.45 119 128 119.225 128 119.5C128 119.775 127.55 120 127 120C126.45 120 126 120.225 126 120.5C126 120.775 125.6 121 125.111 121C124.621 121 123.896 121.45 123.5 122C123.104 122.55 122.379 123 121.889 123C121.4 123 121 123.225 121 123.5C121 123.775 120.6 124 120.111 124C119.621 124 118.896 124.45 118.5 125C118.104 125.55 117.484 126 117.123 126C116.072 126 113 129.366 113 130.519C113 131.761 114.106 133 115.214 133C115.646 133 116 133.225 116 133.5C116 133.806 118.333 134 122 134C125.667 134 128 134.194 128 134.5C128 134.792 129.667 135 132 135C134.333 135 136 134.792 136 134.5C136 134.222 137.334 134 139 134C140.666 134 142 134.222 142 134.5C142 134.775 141.325 135 140.5 135C139.675 135 139 135.225 139 135.5C139 135.775 138.55 136 138 136C137.45 136 137 136.225 137 136.5C137 136.775 136.1 137 135 137C133.9 137 133 137.225 133 137.5C133 137.775 132.1 138 131 138C129.9 138 129 138.225 129 138.5C129 138.775 127.875 139 126.5 139C125.125 139 124 139.225 124 139.5C124 139.775 122.875 140 121.5 140C120.125 140 119 140.225 119 140.5C119 140.775 118.1 141 117 141C115.9 141 115 141.225 115 141.5C115 141.775 113.875 142 112.5 142C111.125 142 110 142.225 110 142.5C110 142.775 109.1 143 108 143C106.9 143 106 143.225 106 143.5C106 143.775 105.1 144 104 144C102.9 144 102 144.225 102 144.5C102 144.775 101.1 145 100 145C98.9 145 98 145.225 98 145.5C98 145.775 97.1 146 96 146C94.9 146 94 146.225 94 146.5C94 146.775 93.1 147 92 147C90.9 147 90 147.225 90 147.5C90 147.775 89.1 148 88 148C86.9 148 86 148.225 86 148.5C86 148.775 85.1 149 84 149C82.9 149 82 149.225 82 149.5C82 149.775 81.1 150 80 150C78.9 150 78 150.225 78 150.5C78 150.775 77.1 151 76 151C74.9 151 74 151.225 74 151.5C74 151.775 73.1 152 72 152C70.9 152 70 152.225 70 152.5C70 152.775 69.1 153 68 153C66.9 153 66 153.225 66 153.5C66 153.775 65.1 154 64 154C62.9 154 62 154.225 62 154.5C62 154.775 61.1 155 60 155C58.9 155 58 155.225 58 155.5C58 155.775 57.1 156 56 156C54.9 156 54 156.225 54 156.5C54 156.775 53.325 157 52.5 157C51.675 157 51 157.225 51 157.5C51 157.775 50.1 158 49 158C47.9 158 47 158.225 47 158.5C47 158.775 46.325 159 45.5 159C44.675 159 44 159.225 44 159.5C44 159.775 43.1 160 42 160C40.9 160 40 160.225 40 160.5C40 160.775 39.325 161 38.5 161C37.675 161 37 161.225 37 161.5C37 161.775 36.325 162 35.5 162C34.675 162 34 162.225 34 162.5C34 162.775 33.325 163 32.5 163C31.675 163 31 163.225 31 163.5C31 163.775 30.325 164 29.5 164C28.675 164 28 164.225 28 164.5C28 164.775 27.1 165 26 165C24.9 165 24 165.225 24 165.5C24 165.775 23.1 166 22 166C20.9 166 20 166.225 20 166.5C20 166.775 19.1 167 18 167C16.9 167 16 167.225 16 167.5C16 167.775 15.1 168 14 168C12.9 168 12 168.225 12 168.5C12 168.775 11.1 169 10 169C8.9 169 8 169.225 8 169.5C8 169.775 7.325 170 6.5 170C5.675 170 5 170.225 5 170.5C5 170.775 4.4275 171 3.7275 171C2.631 171 0 172.925 0 173.727C0 173.877 2.25 174 5 174C8 174 10 173.8 10 173.5C10 173.204 11.8335 173 14.5 173C17.1665 173 19 172.796 19 172.5C19 172.204 20.8335 172 23.5 172C26.1665 172 28 171.796 28 171.5C28 171.208 29.6665 171 32 171C34.3335 171 36 170.792 36 170.5C36 170.222 37.3335 170 39 170C40.6665 170 42 169.778 42 169.5C42 169.225 43.125 169 44.5 169C45.875 169 47 168.775 47 168.5C47 168.225 48.125 168 49.5 168C50.875 168 52 167.775 52 167.5C52 167.225 53.125 167 54.5 167C55.875 167 57 166.775 57 166.5C57 166.225 57.9 166 59 166C60.1 166 61 165.775 61 165.5C61 165.225 61.9 165 63 165C64.1 165 65 164.775 65 164.5C65 164.225 65.9 164 67 164C68.1 164 69 163.775 69 163.5C69 163.225 69.9 163 71 163C72.1 163 73 162.775 73 162.5C73 162.225 73.9 162 75 162C76.1 162 77 161.775 77 161.5C77 161.225 77.9 161 79 161C80.1 161 81 160.775 81 160.5C81 160.225 81.9 160 83 160C84.1 160 85 159.775 85 159.5C85 159.225 85.9 159 87 159C88.1 159 89 158.775 89 158.5C89 158.225 89.675 158 90.5 158C91.325 158 92 157.775 92 157.5C92 157.225 92.9 157 94 157C95.1 157 96 156.775 96 156.5C96 156.225 96.9 156 98 156C99.1 156 100 155.775 100 155.5C100 155.225 100.675 155 101.5 155C102.325 155 103 154.775 103 154.5C103 154.225 103.9 154 105 154C106.1 154 107 153.775 107 153.5C107 153.225 107.675 153 108.5 153C109.325 153 110 152.775 110 152.5C110 152.225 110.675 152 111.5 152C112.325 152 113 151.775 113 151.5C113 151.225 113.9 151 115 151C116.1 151 117 150.775 117 150.5C117 150.225 117.675 150 118.5 150C119.325 150 120 149.775 120 149.5C120 149.225 120.675 149 121.5 149C122.325 149 123 148.775 123 148.5C123 148.225 123.675 148 124.5 148C125.325 148 126 147.775 126 147.5C126 147.225 126.675 147 127.5 147C128.325 147 129 146.775 129 146.5C129 146.225 129.675 146 130.5 146C131.325 146 132 145.775 132 145.5C132 145.225 132.675 145 133.5 145C134.325 145 135 144.775 135 144.5C135 144.225 135.675 144 136.5 144C137.325 144 138 143.775 138 143.5C138 143.225 138.675 143 139.5 143C140.325 143 141 142.775 141 142.5C141 142.225 141.675 142 142.5 142C143.325 142 144 141.775 144 141.5C144 141.225 144.675 141 145.5 141C146.325 141 147 140.775 147 140.5C147 140.225 147.675 140 148.5 140C149.325 140 150 139.775 150 139.5C150 139.225 150.675 139 151.5 139C152.325 139 153 138.775 153 138.5C153 138.225 153.45 138 154 138C154.55 138 155 137.775 155 137.5C155 137.225 155.675 137 156.5 137C157.325 137 158 136.775 158 136.5C158 136.225 158.675 136 159.5 136C160.325 136 161 135.775 161 135.5C161 135.225 161.45 135 162 135C162.55 135 163 134.775 163 134.5C163 134.225 163.675 134 164.5 134C165.325 134 166 133.775 166 133.5C166 133.225 166.45 133 167 133C167.55 133 168 132.775 168 132.5C168 132.215 169.5 132 171.5 132C173.5 132 175 131.785 175 131.5C175 131.215 176.5 131 178.5 131C180.5 131 182 130.785 182 130.5C182 130.222 183.334 130 185 130C186.666 130 188 129.778 188 129.5C188 129.222 189.334 129 191 129C192.666 129 194 128.778 194 128.5C194 128.225 195.125 128 196.5 128C197.875 128 199 127.775 199 127.5C199 127.225 200.125 127 201.5 127C202.875 127 204 126.775 204 126.5C204 126.225 205.125 126 206.5 126C207.875 126 209 125.775 209 125.5C209 125.225 209.9 125 211 125C212.1 125 213 124.775 213 124.5C213 124.225 214.125 124 215.5 124C216.875 124 218 123.775 218 123.5C218 123.225 218.9 123 220 123C221.1 123 222 122.775 222 122.5C222 122.225 222.9 122 224 122C225.1 122 226 121.775 226 121.5C226 121.225 226.9 121 228 121C229.1 121 230 120.775 230 120.5C230 120.225 230.9 120 232 120C233.1 120 234 119.775 234 119.5C234 119.225 234.9 119 236 119C237.1 119 238 118.775 238 118.5C238 118.225 238.9 118 240 118C241.1 118 242 117.775 242 117.5C242 117.225 242.675 117 243.5 117C244.325 117 245 116.775 245 116.5C245 116.225 245.9 116 247 116C248.1 116 249 115.775 249 115.5C249 115.225 249.675 115 250.5 115C251.325 115 252 114.775 252 114.5C252 114.225 252.9 114 254 114C255.1 114 256 113.775 256 113.5C256 113.225 256.675 113 257.5 113C258.325 113 259 112.775 259 112.5C259 112.225 259.9 112 261 112C262.1 112 263 111.775 263 111.5C263 111.225 263.675 111 264.5 111C265.325 111 266 110.775 266 110.5C266 110.225 266.675 110 267.5 110C268.325 110 269 109.775 269 109.5C269 109.225 269.675 109 270.5 109C271.325 109 272 108.775 272 108.5C272 108.225 272.675 108 273.5 108C274.325 108 275 107.775 275 107.5C275 107.225 275.45 107 276 107C276.55 107 277 107.129 277 107.286C277 107.873 275.543 109 274.785 109C274.353 109 274 109.225 274 109.5C274 109.775 273.6 110 273.111 110C272.621 110 271.896 110.45 271.5 111C271.104 111.55 270.379 112 269.889 112C269.4 112 269 112.225 269 112.5C269 112.775 268.6 113 268.111 113C267.621 113 266.896 113.45 266.5 114C266.104 114.55 265.428 115 265 115C264.572 115 263.896 115.45 263.5 116C263.104 116.55 262.428 117 262 117C261.572 117 260.896 117.45 260.5 118C260.104 118.55 259.428 119 259 119C258.572 119 257.896 119.45 257.5 120C257.104 120.55 256.469 121 256.09 121C255.711 121 254.771 121.675 254 122.5C253.229 123.325 252.344 124 252.033 124C250.933 124 248 127.442 248 128.734C248 129.8 248.231 130 249.458 130C250.26 130 251.048 130.281 251.208 130.625C251.441 131.125 251.559 131.125 251.792 130.625C251.977 130.229 253.164 130 255.042 130C256.681 130 258 129.777 258 129.5C258 129.225 258.9 129 260 129C261.1 129 262 128.775 262 128.5C262 128.225 262.9 128 264 128C265.1 128 266 127.775 266 127.5C266 127.225 266.675 127 267.5 127C268.325 127 269 126.775 269 126.5C269 126.225 269.9 126 271 126C272.1 126 273 125.775 273 125.5C273 125.225 273.675 125 274.5 125C275.325 125 276 124.775 276 124.5C276 124.225 276.675 124 277.5 124C278.325 124 279 123.775 279 123.5C279 123.225 279.9 123 281 123C282.1 123 283 122.775 283 122.5C283 122.225 283.675 122 284.5 122C285.325 122 286 121.775 286 121.5C286 121.225 286.675 121 287.5 121C288.325 121 289 120.775 289 120.5C289 120.225 289.675 120 290.5 120C291.325 120 292 119.775 292 119.5C292 119.225 292.45 119 293 119C293.55 119 294 118.775 294 118.5C294 118.225 294.675 118 295.5 118C296.325 118 297 117.775 297 117.5C297 117.225 297.675 117 298.5 117C299.325 117 300 116.775 300 116.5C300 116.225 300.675 116 301.5 116C302.325 116 303 115.775 303 115.5C303 115.225 303.45 115 304 115C304.55 115 305 114.775 305 114.5C305 114.225 305.675 114 306.5 114C307.325 114 308 113.775 308 113.5C308 113.225 308.675 113 309.5 113C310.325 113 311 112.775 311 112.5C311 112.225 311.45 112 312 112C312.55 112 313 111.775 313 111.5C313 111.225 313.675 111 314.5 111C315.325 111 316 110.775 316 110.5C316 110.225 316.45 110 317 110C317.55 110 318 109.775 318 109.5C318 109.225 318.675 109 319.5 109C320.325 109 321 108.775 321 108.5C321 108.225 321.45 108 322 108C322.55 108 323 107.775 323 107.5C323 107.225 323.675 107 324.5 107C325.325 107 326 106.775 326 106.5C326 106.225 326.45 106 327 106C327.55 106 328 105.775 328 105.5C328 105.225 328.675 105 329.5 105C330.325 105 331 104.775 331 104.5C331 104.225 331.45 104 332 104C332.55 104 333 103.775 333 103.5C333 103.225 333.45 103 334 103C334.55 103 335 102.775 335 102.5C335 102.225 335.675 102 336.5 102C337.325 102 338 101.775 338 101.5C338 101.225 338.45 101 339 101C339.55 101 340 100.775 340 100.5C340 100.225 340.45 100 341 100C341.55 100 342 99.775 342 99.5C342 99.225 342.675 99 343.5 99C344.325 99 345 98.775 345 98.5C345 98.225 345.45 98 346 98C346.55 98 347 97.775 347 97.5C347 97.225 347.45 97 348 97C348.55 97 349 96.775 349 96.5C349 96.225 349.656 96 350.458 96C351.26 96 352.017 95.7185 352.14 95.375C352.27 95.0115 352.548 94.9355 352.806 95.1935C353.064 95.4515 352.988 95.7305 352.625 95.86C352.282 95.983 352 96.496 352 97C352 97.504 351.721 98.0095 351.379 98.1235C350.571 98.393 352.107 100 353.172 100C353.582 100 354.048 100.281 354.208 100.625C354.441 101.125 354.559 101.125 354.792 100.625C354.977 100.229 356.164 100 358.042 100C359.681 100 361 99.777 361 99.5C361 99.225 362.125 99 363.5 99C364.875 99 366 98.775 366 98.5C366 98.225 366.9 98 368 98C369.1 98 370 97.775 370 97.5C370 97.225 370.675 97 371.5 97C372.325 97 373 96.775 373 96.5C373 96.225 373.9 96 375 96C376.1 96 377 95.775 377 95.5C377 95.225 377.45 95 378 95C378.55 95 379 94.775 379 94.5C379 94.225 379.675 94 380.5 94C381.325 94 382 93.775 382 93.5C382 93.225 382.675 93 383.5 93C384.325 93 385 92.775 385 92.5C385 92.225 385.675 92 386.5 92C387.325 92 388 91.775 388 91.5C388 91.225 388.45 91 389 91C389.55 91 390 90.775 390 90.5C390 90.225 390.675 90 391.5 90C392.325 90 393 89.775 393 89.5C393 89.225 393.45 89 394 89C394.55 89 395 88.775 395 88.5C395 88.225 395.675 88 396.5 88C397.325 88 398 87.775 398 87.5C398 87.225 398.45 87 399 87C399.55 87 400 86.775 400 86.5C400 86.225 400.45 86 401 86C401.55 86 402 85.775 402 85.5C402 85.225 402.45 85 403 85C403.55 85 404 84.775 404 84.5C404 84.225 404.675 84 405.5 84C406.325 84 407 83.775 407 83.5C407 83.225 407.45 83 408 83C408.55 83 409 82.775 409 82.5C409 82.225 409.45 82 410 82C410.55 82 411 81.775 411 81.5C411 81.225 411.45 81 412 81C412.55 81 413 80.775 413 80.5C413 80.225 413.45 80 414 80C414.55 80 415 79.775 415 79.5C415 79.225 415.45 79 416 79C416.55 79 417 78.775 417 78.5C417 78.225 417.675 78 418.5 78C419.325 78 420 77.775 420 77.5C420 77.225 420.45 77 421 77C421.55 77 422 76.775 422 76.5C422 76.225 422.45 76 423 76C423.55 76 424 75.775 424 75.5C424 75.225 424.45 75 425 75C425.55 75 426 74.775 426 74.5C426 74.225 426.45 74 427 74C427.55 74 428 73.775 428 73.5C428 73.225 428.45 73 429 73C429.55 73 430 72.775 430 72.5C430 72.225 430.45 72 431 72C431.55 72 432 71.775 432 71.5C432 71.225 432.675 71 433.5 71C434.325 71 435 70.775 435 70.5C435 70.225 435.45 70 436 70C436.55 70 437 69.775 437 69.5C437 69.225 437.45 69 438 69C438.55 69 439 68.775 439 68.5C439 68.225 439.45 68 440 68C440.55 68 441 67.775 441 67.5C441 67.225 441.45 67 442 67C442.55 67 443 66.775 443 66.5C443 66.225 443.45 66 444 66C444.55 66 445 65.775 445 65.5C445 65.225 445.431 65 445.958 65C446.485 65 447.017 64.7185 447.14 64.375C447.263 64.0315 447.528 63.9035 447.73 64.091C447.933 64.278 445.376 67.1405 442.049 70.451C438.722 73.762 436 76.7245 436 77.0345C436 77.345 435.325 78.2295 434.5 79C433.675 79.7705 433 80.6705 433 81C433 81.3295 432.325 82.2295 431.5 83C430.675 83.7705 430 84.761 430 85.2005C430 85.6405 429.775 86 429.5 86C429.225 86 429 86.9 429 88C429 89.889 429.084 90 430.5 90C431.325 90 432 90.225 432 90.5C432 90.775 433.125 91 434.5 91C435.875 91 437 90.775 437 90.5C437 90.197 439.167 90 442.5 90C445.833 90 448 89.803 448 89.5C448 89.222 449.334 89 451 89C452.666 89 454 88.778 454 88.5C454 88.225 454.9 88 456 88C457.1 88 458 87.775 458 87.5C458 87.225 458.675 87 459.5 87C460.325 87 461 86.775 461 86.5C461 86.225 461.9 86 463 86C464.1 86 465 85.775 465 85.5C465 85.225 465.675 85 466.5 85C467.325 85 468 84.775 468 84.5C468 84.225 468.9 84 470 84C471.1 84 472 83.775 472 83.5C472 83.225 472.675 83 473.5 83C474.325 83 475 82.775 475 82.5C475 82.225 476.125 82 477.5 82C478.875 82 480 81.775 480 81.5C480 81.225 481.125 81 482.5 81C483.875 81 485 80.775 485 80.5C485 80.2 487 80 490 80H495V87.7855C495 96.6395 495.818 98.754 498.286 96.2855C499.143 95.4285 499.342 84 498.5 84C498.225 84 498 82.9775 498 81.7275C498 79.0905 496.37 77 494.315 77C493.638 77 492.952 76.719 492.792 76.375C492.559 75.875 492.441 75.875 492.208 76.375C492.011 76.798 490.636 77 487.958 77C485.653 77 484 77.209 484 77.5C484 77.775 482.875 78 481.5 78C480.125 78 479 78.225 479 78.5C479 78.775 478.1 79 477 79C475.9 79 475 79.225 475 79.5C475 79.775 474.1 80 473 80C471.9 80 471 80.225 471 80.5C471 80.775 470.325 81 469.5 81C468.675 81 468 81.225 468 81.5C468 81.775 467.1 82 466 82C464.9 82 464 82.225 464 82.5C464 82.775 463.325 83 462.5 83C461.675 83 461 83.225 461 83.5C461 83.775 460.1 84 459 84C457.9 84 457 84.225 457 84.5C457 84.775 456.1 85 455 85C453.9 85 453 85.225 453 85.5C453 85.778 451.666 86 450 86C448.334 86 447 86.222 447 86.5C447 86.8095 444.333 87 440 87C432.171 87 431.614 86.696 434.5 84C435.325 83.2295 436 82.3295 436 82C436 81.6705 436.675 80.7705 437.5 80C438.325 79.2295 439 78.3485 439 78.043C439 77.3435 448.304 68 449 68C449.509 68 458 59.7515 458 59.257C458 59.1155 457.55 59 457 59C456.45 59 456 58.775 456 58.5C456 58.225 455.55 58 455 58C454.45 58 454 58.225 454 58.5C454 58.775 453.325 59 452.5 59C451.675 59 451 59.225 451 59.5C451 59.775 450.55 60 450 60C449.45 60 449 60.225 449 60.5C449 60.775 448.325 61 447.5 61C446.675 61 446 61.225 446 61.5C446 61.775 445.55 62 445 62C444.45 62 444 62.225 444 62.5C444 62.775 443.55 63 443 63C442.45 63 442 63.225 442 63.5C442 63.775 441.55 64 441 64C440.45 64 440 64.225 440 64.5C440 64.775 439.55 65 439 65C438.45 65 438 65.225 438 65.5C438 65.775 437.55 66 437 66C436.45 66 436 66.225 436 66.5C436 66.775 435.55 67 435 67C434.45 67 434 67.225 434 67.5C434 67.775 433.55 68 433 68C432.45 68 432 68.225 432 68.5C432 68.775 431.325 69 430.5 69C429.675 69 429 69.225 429 69.5C429 69.775 428.55 70 428 70C427.45 70 427 70.225 427 70.5C427 70.775 426.55 71 426 71C425.45 71 425 71.225 425 71.5C425 71.775 424.55 72 424 72C423.45 72 423 72.225 423 72.5C423 72.775 422.55 73 422 73C421.45 73 421 73.225 421 73.5C421 73.775 420.55 74 420 74C419.45 74 419 74.225 419 74.5C419 74.775 418.55 75 418 75C417.45 75 417 75.225 417 75.5C417 75.775 416.325 76 415.5 76C414.675 76 414 76.225 414 76.5C414 76.775 413.55 77 413 77C412.45 77 412 77.225 412 77.5C412 77.775 411.55 78 411 78C410.45 78 410 78.225 410 78.5C410 78.775 409.55 79 409 79C408.45 79 408 79.225 408 79.5C408 79.775 407.55 80 407 80C406.45 80 406 80.225 406 80.5C406 80.775 405.55 81 405 81C404.45 81 404 81.225 404 81.5C404 81.775 403.325 82 402.5 82C401.675 82 401 82.225 401 82.5C401 82.775 400.55 83 400 83C399.45 83 399 83.225 399 83.5C399 83.775 398.55 84 398 84C397.45 84 397 84.225 397 84.5C397 84.775 396.325 85 395.5 85C394.675 85 394 85.225 394 85.5C394 85.775 393.55 86 393 86C392.45 86 392 86.225 392 86.5C392 86.775 391.55 87 391 87C390.45 87 390 87.225 390 87.5C390 87.775 389.325 88 388.5 88C387.675 88 387 88.225 387 88.5C387 88.775 386.325 89 385.5 89C384.675 89 384 89.225 384 89.5C384 89.775 383.55 90 383 90C382.45 90 382 90.225 382 90.5C382 90.775 381.325 91 380.5 91C379.675 91 379 91.225 379 91.5C379 91.775 378.325 92 377.5 92C376.675 92 376 92.225 376 92.5C376 92.775 375.325 93 374.5 93C373.675 93 373 93.225 373 93.5C373 93.775 372.1 94 371 94C369.9 94 369 94.225 369 94.5C369 94.775 368.1 95 367 95C365.9 95 365 95.225 365 95.5C365 95.775 364.1 96 363 96C361.9 96 361 96.225 361 96.5C361 96.775 360.1 97 359 97C357.9 97 357 96.8775 357 96.7275C357 96.212 359.455 94 360.026 94C360.341 94 361.229 93.325 362 92.5C362.771 91.675 363.665 91 363.987 91C364.938 91 366.358 89.369 365.621 89.1235C365.279 89.0095 365 88.4855 365 87.9585C365 87.3335 364.652 87 364 87C363.45 87 363 87.225 363 87.5C363 87.775 362.55 88 362 88C361.45 88 361 88.225 361 88.5C361 88.775 360.55 89 360 89C359.45 89 359 89.225 359 89.5C359 89.775 358.325 90 357.5 90C356.675 90 356 90.225 356 90.5C356 90.775 355.325 91 354.5 91C353.675 91 353 91.225 353 91.5C353 91.775 352.55 92 352 92C351.45 92 351 92.225 351 92.5C351 92.775 350.55 93 350 93C349.45 93 349 93.225 349 93.5C349 93.775 348.325 94 347.5 94C346.675 94 346 94.225 346 94.5C346 94.775 345.55 95 345 95C344.45 95 344 95.225 344 95.5C344 95.775 343.55 96 343 96C342.45 96 342 96.225 342 96.5C342 96.775 341.325 97 340.5 97C339.675 97 339 97.225 339 97.5C339 97.775 338.55 98 338 98C337.45 98 337 98.225 337 98.5C337 98.775 336.55 99 336 99C335.45 99 335 99.225 335 99.5C335 99.775 334.325 100 333.5 100C332.675 100 332 100.225 332 100.5C332 100.775 331.55 101 331 101C330.45 101 330 101.225 330 101.5C330 101.775 329.325 102 328.5 102C327.675 102 327 102.225 327 102.5C327 102.775 326.55 103 326 103C325.45 103 325 103.225 325 103.5C325 103.775 324.55 104 324 104C323.45 104 323 104.225 323 104.5C323 104.775 322.325 105 321.5 105C320.675 105 320 105.225 320 105.5C320 105.775 319.55 106 319 106C318.45 106 318 106.225 318 106.5C318 106.775 317.325 107 316.5 107C315.675 107 315 107.225 315 107.5C315 107.775 314.55 108 314 108C313.45 108 313 108.225 313 108.5C313 108.775 312.325 109 311.5 109C310.675 109 310 109.225 310 109.5C310 109.775 309.325 110 308.5 110C307.675 110 307 110.225 307 110.5C307 110.775 306.55 111 306 111C305.45 111 305 111.225 305 111.5C305 111.775 304.325 112 303.5 112C302.675 112 302 112.225 302 112.5C302 112.775 301.325 113 300.5 113C299.675 113 299 113.225 299 113.5C299 113.775 298.55 114 298 114C297.45 114 297 114.225 297 114.5C297 114.775 296.325 115 295.5 115C294.675 115 294 115.225 294 115.5C294 115.775 293.325 116 292.5 116C291.675 116 291 116.225 291 116.5C291 116.775 290.325 117 289.5 117C288.675 117 288 117.225 288 117.5C288 117.775 287.325 118 286.5 118C285.675 118 285 118.225 285 118.5C285 118.775 284.325 119 283.5 119C282.675 119 282 119.225 282 119.5C282 119.775 281.325 120 280.5 120C279.675 120 279 120.225 279 120.5C279 120.775 278.325 121 277.5 121C276.675 121 276 121.225 276 121.5C276 121.775 275.1 122 274 122C272.9 122 272 122.225 272 122.5C272 122.775 271.325 123 270.5 123C269.675 123 269 123.225 269 123.5C269 123.775 268.1 124 267 124C265.9 124 265 124.225 265 124.5C265 124.775 264.325 125 263.5 125C262.675 125 262 125.225 262 125.5C262 125.775 260.875 126 259.5 126C258.125 126 257 126.225 257 126.5C257 126.775 256.325 127 255.5 127C254.675 127 254 126.877 254 126.727C254 126.169 256.479 124 257.117 124C257.481 124 258.104 123.55 258.5 123C258.896 122.45 259.572 122 260 122C260.428 122 261.104 121.55 261.5 121C261.896 120.45 262.572 120 263 120C263.428 120 264.104 119.55 264.5 119C264.896 118.45 265.572 118 266 118C266.428 118 267.104 117.55 267.5 117C267.896 116.45 268.621 116 269.111 116C269.6 116 270 115.775 270 115.5C270 115.225 270.4 115 270.889 115C271.379 115 272.104 114.55 272.5 114C272.896 113.45 273.621 113 274.111 113C274.6 113 275 112.775 275 112.5C275 112.225 275.4 112 275.889 112C276.379 112 277.104 111.55 277.5 111C277.896 110.45 278.621 110 279.111 110C279.6 110 280 109.775 280 109.5C280 109.225 280.45 109 281 109C281.55 109 282 108.775 282 108.5C282 108.225 282.45 108 283 108C283.55 108 284 107.775 284 107.5C284 107.225 284.4 107 284.889 107C285.379 107 286.104 106.55 286.5 106C286.896 105.45 287.621 105 288.111 105C288.6 105 289 104.775 289 104.5C289 104.225 289.45 104 290 104C290.55 104 291 103.775 291 103.5C291 103.225 291.45 103 292 103C292.55 103 293 102.775 293 102.5C293 102.225 293.4 102 293.889 102C294.379 102 295.104 101.55 295.5 101C295.896 100.45 296.621 100 297.111 100C297.6 100 298 99.775 298 99.5C298 99.225 298.45 99 299 99C299.55 99 300 98.775 300 98.5C300 98.225 300.45 98 301 98C301.55 98 302 97.775 302 97.5C302 97.225 302.4 97 302.889 97C303.379 97 304.104 96.55 304.5 96C304.896 95.45 305.621 95 306.111 95C306.6 95 307 94.775 307 94.5C307 94.225 307.45 94 308 94C308.55 94 309 93.775 309 93.5C309 93.225 309.675 93 310.5 93C311.325 93 312 92.775 312 92.5C312 92.225 312.45 92 313 92C313.55 92 314 91.775 314 91.5C314 91.225 314.353 91 314.785 91C315.796 91 317 89.796 317 88.7855C317 88.176 316.439 88 314.5 88C313.125 88 312 88.225 312 88.5C312 88.775 311.55 89 311 89C310.45 89 310 89.225 310 89.5C310 89.775 309.55 90 309 90C308.45 90 308 90.225 308 90.5C308 90.775 307.55 91 307 91C306.45 91 306 91.225 306 91.5C306 91.775 305.55 92 305 92C304.45 92 304 92.225 304 92.5C304 92.775 303.55 93 303 93C302.45 93 302 93.225 302 93.5C302 93.775 301.55 94 301 94C300.45 94 300 94.225 300 94.5C300 94.775 299.325 95 298.5 95C297.675 95 297 95.225 297 95.5C297 95.775 296.55 96 296 96C295.45 96 295 96.225 295 96.5C295 96.775 294.55 97 294 97C293.45 97 293 97.225 293 97.5C293 97.775 292.325 98 291.5 98C290.675 98 290 98.225 290 98.5C290 98.775 289.55 99 289 99C288.45 99 288 99.225 288 99.5C288 99.775 287.325 100 286.5 100C285.675 100 285 100.225 285 100.5C285 100.775 284.325 101 283.5 101C282.675 101 282 101.225 282 101.5C282 101.775 281.55 102 281 102C280.45 102 280 102.225 280 102.5C280 102.775 279.325 103 278.5 103C277.675 103 277 103.225 277 103.5C277 103.775 276.325 104 275.5 104C274.675 104 274 104.225 274 104.5C274 104.775 273.325 105 272.5 105C271.675 105 271 105.225 271 105.5C271 105.775 270.325 106 269.5 106C268.675 106 268 106.225 268 106.5C268 106.775 267.325 107 266.5 107C265.675 107 265 107.225 265 107.5C265 107.775 264.325 108 263.5 108C262.675 108 262 108.225 262 108.5C262 108.775 261.325 109 260.5 109C259.675 109 259 109.225 259 109.5C259 109.775 258.1 110 257 110C255.9 110 255 110.225 255 110.5C255 110.775 254.325 111 253.5 111C252.675 111 252 111.225 252 111.5C252 111.775 251.1 112 250 112C248.9 112 248 112.225 248 112.5C248 112.775 247.325 113 246.5 113C245.675 113 245 113.225 245 113.5C245 113.775 244.1 114 243 114C241.9 114 241 114.225 241 114.5C241 114.775 240.1 115 239 115C237.9 115 237 115.225 237 115.5C237 115.775 236.1 116 235 116C233.9 116 233 116.225 233 116.5C233 116.775 232.1 117 231 117C229.9 117 229 117.225 229 117.5C229 117.775 228.1 118 227 118C225.9 118 225 118.225 225 118.5C225 118.775 224.1 119 223 119C221.9 119 221 119.225 221 119.5C221 119.775 220.1 120 219 120C217.9 120 217 120.225 217 120.5C217 120.775 216.1 121 215 121C213.9 121 213 121.225 213 121.5C213 121.775 211.875 122 210.5 122C209.125 122 208 122.225 208 122.5C208 122.775 206.875 123 205.5 123C204.125 123 203 123.225 203 123.5C203 123.775 201.875 124 200.5 124C199.125 124 198 124.225 198 124.5C198 124.775 196.875 125 195.5 125C194.125 125 193 125.225 193 125.5C193 125.778 191.666 126 190 126C188.334 126 187 126.222 187 126.5C187 126.775 186.1 127 185 127C183.9 127 183 126.775 183 126.5C183 126.225 183.45 126 184 126C184.55 126 185 125.775 185 125.5C185 125.225 185.675 125 186.5 125C187.325 125 188 124.775 188 124.5C188 124.225 188.45 124 189 124C189.55 124 190 123.775 190 123.5C190 123.225 190.45 123 191 123C191.55 123 192 122.775 192 122.5C192 122.225 192.45 122 193 122C193.55 122 194 121.775 194 121.5C194 121.225 194.45 121 195 121C195.55 121 196 120.775 196 120.5C196 120.225 196.45 120 197 120C197.55 120 198 119.775 198 119.5C198 119.225 198.45 119 199 119C199.55 119 200 118.775 200 118.5C200 118.225 200.675 118 201.5 118C202.325 118 203 117.775 203 117.5C203 117.225 203.45 117 204 117C204.55 117 205 116.775 205 116.5C205 116.225 205.4 116 205.889 116C206.379 116 207.104 115.55 207.5 115C207.896 114.45 208.621 114 209.111 114C209.6 114 210 113.775 210 113.5C210 113.225 210.45 113 211 113C211.55 113 212 112.775 212 112.5C212 112.225 212.45 112 213 112C213.55 112 214 111.775 214 111.5C214 111.225 214.45 111 215 111C215.55 111 216 110.775 216 110.5C216 110.225 216.4 110 216.889 110C217.379 110 218.104 109.55 218.5 109C218.896 108.45 219.621 108 220.111 108C220.6 108 221 107.775 221 107.5C221 107.225 221.45 107 222 107C222.55 107 223 106.775 223 106.5C223 106.225 223.4 106 223.889 106C224.379 106 225.104 105.55 225.5 105C225.896 104.45 226.572 104 227 104C227.428 104 228.104 103.55 228.5 103C228.896 102.45 229.572 102 230 102C230.428 102 231.104 101.55 231.5 101C231.896 100.45 232.572 100 233 100C233.428 100 234.104 99.55 234.5 99C234.896 98.45 235.572 98 236 98C236.428 98 237.104 97.55 237.5 97C237.896 96.45 238.572 96 239 96C239.428 96 240.104 95.55 240.5 95C240.896 94.45 241.531 94 241.91 94C242.289 94 243.229 93.325 244 92.5C244.771 91.675 245.666 91 245.99 91C246.313 91 247.443 90.1 248.5 89C249.557 87.9 250.679 87 250.993 87C251.307 87 252.661 85.875 254 84.5C255.339 83.125 256.678 82 256.974 82C257.689 82 266 73.6735 266 72.9575C266 72.6515 266.675 71.7705 267.5 71C268.325 70.2295 269 69.239 269 68.7995C269 68.3595 269.225 68 269.5 68C269.775 68 270 67.55 270 67C270 66.45 270.225 66 270.5 66C270.775 66 271 65.55 271 65C271 64.45 271.225 64 271.5 64C271.775 64 272 63.325 272 62.5C272 61.675 272.225 61 272.5 61C272.808 61 273 58.5 273 54.5C273 50.5 272.808 48 272.5 48C272.225 48 272 47.325 272 46.5C272 45.675 271.775 45 271.5 45C271.225 45 271 44.325 271 43.5C271 42.675 270.775 42 270.5 42C270.225 42 270 41.55 270 41C270 40.45 269.775 40 269.5 40C269.225 40 269 39.55 269 39C269 38.45 268.775 38 268.5 38C268.225 38 268 37.5995 268 37.1105C268 36.621 267.55 35.8965 267 35.5C266.45 35.1035 266 34.4895 266 34.135C266 33.3505 252.734 20 251.955 20C251.65 20 250.771 19.325 250 18.5C249.229 17.675 248.289 17 247.91 17C247.531 17 246.896 16.55 246.5 16C246.104 15.45 245.379 15 244.889 15C244.4 15 244 14.775 244 14.5C244 14.225 243.6 14 243.111 14C242.621 14 241.896 13.55 241.5 13C241.104 12.45 240.379 12 239.889 12C239.4 12 239 11.775 239 11.5C239 11.225 238.55 11 238 11C237.45 11 237 10.775 237 10.5C237 10.225 236.55 10 236 10C235.45 10 235 9.775 235 9.5C235 9.225 234.55 9 234 9C233.45 9 233 8.775 233 8.5C233 8.225 232.55 8 232 8C231.45 8 231 7.775 231 7.5C231 7.225 230.55 7 230 7C229.45 7 229 6.775 229 6.5C229 6.225 228.325 6 227.5 6C226.675 6 226 5.775 226 5.5C226 5.225 225.325 5 224.5 5C223.675 5 223 4.775 223 4.5C223 4.225 222.325 4 221.5 4C220.675 4 220 3.775 220 3.5C220 3.225 218.875 3 217.5 3C216.125 3 215 2.775 215 2.5C215 2.222 213.666 2 212 2C210.334 2 209 1.778 209 1.5C209 1.2 207 1 204 1C201 1 199 0.8 199 0.5C199 0.177 193.333 0 183 0C172.667 0 167 0.177 167 0.5ZM630.625 13.748C630.202 14.228 630 16.324 630 20.229C630 23.743 629.805 26 629.5 26C629.225 26 629 27.125 629 28.5C629 29.875 628.775 31 628.5 31C628.225 31 628 31.9 628 33C628 34.1 627.775 35 627.5 35C627.225 35 627 35.9 627 37C627 38.1 626.775 39 626.5 39C626.225 39 626 39.675 626 40.5C626 41.325 625.775 42 625.5 42C625.225 42 625 42.9 625 44C625 45.1 624.775 46 624.5 46C624.225 46 624 46.675 624 47.5C624 48.325 623.775 49 623.5 49C623.225 49 623 49.9 623 51C623 52.1 622.775 53 622.5 53C622.225 53 622 53.675 622 54.5C622 55.325 621.775 56 621.5 56C621.225 56 621 56.675 621 57.5C621 58.325 620.775 59 620.5 59C620.225 59 620 59.675 620 60.5C620 61.325 619.775 62 619.5 62C619.225 62 619 62.675 619 63.5C619 64.325 618.775 65 618.5 65C618.225 65 618 65.45 618 66C618 66.55 617.775 67 617.5 67C617.225 67 617 67.675 617 68.5C617 69.325 616.775 70 616.5 70C616.225 70 616 70.675 616 71.5C616 72.325 615.775 73 615.5 73C615.225 73 615 73.45 615 74C615 74.55 614.775 75 614.5 75C614.225 75 614 75.675 614 76.5C614 77.325 613.775 78 613.5 78C613.225 78 613 78.675 613 79.5C613 80.325 612.775 81 612.5 81C612.225 81 612 81.45 612 82C612 82.55 611.775 83 611.5 83C611.225 83 611 83.675 611 84.5C611 85.325 610.775 86 610.5 86C610.225 86 610 86.45 610 87C610 87.55 609.775 88 609.5 88C609.225 88 609 88.675 609 89.5C609 90.325 608.775 91 608.5 91C608.225 91 608 91.45 608 92C608 92.55 607.775 93 607.5 93C607.225 93 607 93.45 607 94C607 94.55 606.775 95 606.5 95C606.225 95 606 95.675 606 96.5C606 97.325 605.775 98 605.5 98C605.225 98 605 98.45 605 99C605 99.55 604.775 100 604.5 100C604.225 100 604 100.675 604 101.5C604 102.325 603.775 103 603.5 103C603.225 103 603 103.45 603 104C603 104.55 602.775 105 602.5 105C602.225 105 602 105.45 602 106C602 106.55 601.775 107 601.5 107C601.225 107 601 107.675 601 108.5C601 109.325 600.775 110 600.5 110C600.225 110 600 110.45 600 111C600 111.55 599.775 112 599.5 112C599.225 112 599 112.45 599 113C599 113.778 598.666 114 597.5 114C596.675 114 596 114.225 596 114.5C596 114.775 595.1 115 594 115C592.9 115 592 115.225 592 115.5C592 115.812 589 116 584 116C579 116 576 116.188 576 116.5C576 116.775 574.875 117 573.5 117C572.125 117 571 117.225 571 117.5C571 117.775 570.55 118 570 118C569.45 118 569 118.225 569 118.5C569 118.775 568.55 119 568 119C566.788 119 566.599 121.171 567.714 122.286C568.522 123.094 572 123.267 572 122.5C572 122.215 573.5 122 575.5 122C577.5 122 579 121.785 579 121.5C579 121.225 580.125 121 581.5 121C582.875 121 584 120.775 584 120.5C584 120.197 586.167 120 589.5 120H595V121.5C595 122.325 594.775 123 594.5 123C594.225 123 594 123.675 594 124.5C594 125.325 593.775 126 593.5 126C593.225 126 593 126.45 593 127C593 127.55 592.775 128 592.5 128C592.225 128 592 128.675 592 129.5C592 130.325 591.775 131 591.5 131C591.225 131 591 131.45 591 132C591 132.55 590.775 133 590.5 133C590.225 133 590 133.45 590 134C590 134.55 589.775 135 589.5 135C589.225 135 589 135.675 589 136.5C589 137.325 588.775 138 588.5 138C588.225 138 588 138.45 588 139C588 139.55 587.775 140 587.5 140C587.225 140 587 140.45 587 141C587 141.55 586.775 142 586.5 142C586.225 142 586 142.45 586 143C586 143.55 585.775 144 585.5 144C585.225 144 585 144.675 585 145.5C585 146.325 584.775 147 584.5 147C584.225 147 584 147.45 584 148C584 148.55 583.775 149 583.5 149C583.225 149 583 149.45 583 150C583 150.55 582.775 151 582.5 151C582.225 151 582 151.45 582 152C582 152.55 581.775 153 581.5 153C581.225 153 581 153.45 581 154C581 154.55 580.775 155 580.5 155C580.225 155 580 155.45 580 156C580 156.55 579.775 157 579.5 157C579.225 157 579 157.45 579 158C579 158.55 578.775 159 578.5 159C578.225 159 578 159.45 578 160C578 160.55 577.775 161 577.5 161C577.225 161 577 161.4 577 161.889C577 162.379 576.55 163.104 576 163.5C575.45 163.896 575 164.621 575 165.111C575 165.6 574.775 166 574.5 166C574.225 166 574 166.45 574 167C574 167.55 573.775 168 573.5 168C573.225 168 573 168.45 573 169C573 169.55 572.775 170 572.5 170C572.225 170 572 170.45 572 171C572 171.55 571.775 172 571.5 172C571.225 172 571 172.45 571 173C571 173.55 570.775 174 570.5 174C570.225 174 570 174.4 570 174.889C570 175.379 569.55 176.104 569 176.5C568.45 176.896 568 177.621 568 178.111C568 178.6 567.775 179 567.5 179C567.225 179 567 179.45 567 180C567 180.55 566.775 181 566.5 181C566.225 181 566 181.45 566 182C566 182.55 565.775 183 565.5 183C565.225 183 565 183.45 565 184C565 184.55 564.775 185 564.5 185C564.225 185 564 185.45 564 186C564 186.55 563.775 187 563.5 187C563.225 187 563 188.125 563 189.5C563 191.439 563.176 192 563.786 192C564.75 192 566 190.811 566 189.896C566 189.524 566.45 188.896 567 188.5C567.55 188.104 568 187.379 568 186.889C568 186.4 568.225 186 568.5 186C568.775 186 569 185.55 569 185C569 184.45 569.225 184 569.5 184C569.775 184 570 183.6 570 183.111C570 182.621 570.45 181.896 571 181.5C571.55 181.104 572 180.379 572 179.889C572 179.4 572.225 179 572.5 179C572.775 179 573 178.55 573 178C573 177.45 573.225 177 573.5 177C573.775 177 574 176.55 574 176C574 175.45 574.225 175 574.5 175C574.775 175 575 174.55 575 174C575 173.45 575.225 173 575.5 173C575.775 173 576 172.55 576 172C576 171.45 576.225 171 576.5 171C576.775 171 577 170.55 577 170C577 169.45 577.225 169 577.5 169C577.775 169 578 168.55 578 168C578 167.45 578.225 167 578.5 167C578.775 167 579 166.55 579 166C579 165.45 579.225 165 579.5 165C579.775 165 580 164.55 580 164C580 163.45 580.225 163 580.5 163C580.775 163 581 162.55 581 162C581 161.45 581.225 161 581.5 161C581.775 161 582 160.416 582 159.701C582 158.902 582.577 157.862 583.5 157C584.325 156.229 585 155.239 585 154.799C585 154.359 585.225 154 585.5 154C585.775 154 586 153.55 586 153C586 152.45 586.225 152 586.5 152C586.775 152 587 151.55 587 151C587 150.45 587.225 150 587.5 150C587.775 150 588 149.55 588 149C588 148.45 588.225 148 588.5 148C588.775 148 589 147.55 589 147C589 146.45 589.225 146 589.5 146C589.775 146 590 145.55 590 145C590 144.45 590.225 144 590.5 144C590.775 144 591 143.55 591 143C591 142.45 591.225 142 591.5 142C591.775 142 592 141.55 592 141C592 140.45 592.225 140 592.5 140C592.775 140 593 139.325 593 138.5C593 137.675 593.225 137 593.5 137C593.775 137 594 136.325 594 135.5C594 134.675 594.225 134 594.5 134C594.775 134 595 133.325 595 132.5C595 131.675 595.225 131 595.5 131C595.775 131 596 130.1 596 129C596 127.9 596.225 127 596.5 127C596.775 127 597 126.55 597 126C597 125.45 597.225 125 597.5 125C597.775 125 598 124.325 598 123.5C598 122.675 598.225 122 598.5 122C598.775 122 599 121.55 599 121C599 120.45 599.225 120 599.5 120C599.775 120 600 119.55 600 119C600 118.45 600.225 118 600.5 118C600.775 118 601 117.55 601 117C601 116.222 601.334 116 602.5 116C603.325 116 604 115.775 604 115.5C604 115.225 604.9 115 606 115C607.1 115 608 114.775 608 114.5C608 114.225 608.9 114 610 114C611.1 114 612 113.775 612 113.5C612 113.225 612.675 113 613.5 113C614.325 113 615 112.775 615 112.5C615 112.225 615.9 112 617 112C618.1 112 619 111.775 619 111.5C619 111.225 619.675 111 620.5 111C621.325 111 622 110.775 622 110.5C622 110.225 622.9 110 624 110C625.1 110 626 109.775 626 109.5C626 109.225 626.9 109 628 109C629.1 109 630 108.775 630 108.5C630 108.225 630.9 108 632 108C633.1 108 634 107.775 634 107.5C634 107.225 634.675 107 635.5 107C636.325 107 637 106.775 637 106.5C637 106.225 637.9 106 639 106C640.1 106 641 105.775 641 105.5C641 105.225 641.9 105 643 105C644.1 105 645 104.775 645 104.5C645 104.225 645.9 104 647 104C648.1 104 649 103.775 649 103.5C649 103.225 649.9 103 651 103C652.1 103 653 102.775 653 102.5C653 102.225 653.675 102 654.5 102C655.325 102 656 101.775 656 101.5C656 101.225 656.9 101 658 101C659.1 101 660 100.775 660 100.5C660 100.225 660.9 100 662 100C663.1 100 664 99.775 664 99.5C664 99.225 664.9 99 666 99C667.1 99 668 98.775 668 98.5C668 98.225 669.125 98 670.5 98C671.875 98 673 97.775 673 97.5C673 97.225 673.9 97 675 97C676.1 97 677 96.775 677 96.5C677 96.225 677.9 96 679 96C680.1 96 681 95.775 681 95.5C681 95.225 681.9 95 683 95C684.1 95 685 94.775 685 94.5C685 94.225 685.9 94 687 94C688.1 94 689 93.775 689 93.5C689 93.225 689.9 93 691 93C692.1 93 693 92.775 693 92.5C693 92.225 693.9 92 695 92C696.1 92 697 91.775 697 91.5C697 91.225 698.125 91 699.5 91C700.875 91 702 90.775 702 90.5C702 90.225 702.9 90 704 90C705.1 90 706 89.775 706 89.5C706 89.225 706.9 89 708 89C709.1 89 710 88.775 710 88.5C710 88.225 711.125 88 712.5 88C713.875 88 715 87.775 715 87.5C715 87.225 715.9 87 717 87C718.1 87 719 86.775 719 86.5C719 86.225 719.675 86 720.5 86C721.325 86 722 86.225 722 86.5C722 86.775 721.325 87 720.5 87C719.675 87 719 87.225 719 87.5C719 87.775 718.325 88 717.5 88C716.675 88 716 88.225 716 88.5C716 88.775 715.55 89 715 89C714.45 89 714 89.225 714 89.5C714 89.775 713.325 90 712.5 90C711.675 90 711 90.225 711 90.5C711 90.775 710.55 91 710 91C709.45 91 709 91.225 709 91.5C709 91.775 708.325 92 707.5 92C706.675 92 706 92.225 706 92.5C706 92.775 705.55 93 705 93C704.45 93 704 93.225 704 93.5C704 93.775 703.55 94 703 94C702.45 94 702 94.225 702 94.5C702 94.775 701.55 95 701 95C700.45 95 700 95.225 700 95.5C700 95.775 699.55 96 699 96C698.45 96 698 96.225 698 96.5C698 96.775 697.55 97 697 97C696.45 97 696 97.225 696 97.5C696 97.775 695.325 98 694.5 98C693.675 98 693 98.225 693 98.5C693 98.775 692.55 99 692 99C691.45 99 691 99.225 691 99.5C691 99.775 690.646 100 690.214 100C689.456 100 688 101.128 688 101.715C688 101.872 689.35 102 691 102C692.666 102 694 101.778 694 101.5C694 101.225 694.675 101 695.5 101C696.325 101 697 100.775 697 100.5C697 100.225 697.675 100 698.5 100C699.325 100 700 99.775 700 99.5C700 99.225 700.45 99 701 99C701.55 99 702 98.775 702 98.5C702 98.225 702.45 98 703 98C703.55 98 704 97.775 704 97.5C704 97.225 704.675 97 705.5 97C706.325 97 707 96.775 707 96.5C707 96.225 707.45 96 708 96C708.55 96 709 95.775 709 95.5C709 95.225 709.45 95 710 95C710.55 95 711 94.775 711 94.5C711 94.225 711.45 94 712 94C712.55 94 713 93.775 713 93.5C713 93.225 713.675 93 714.5 93C715.325 93 716 92.775 716 92.5C716 92.225 716.45 92 717 92C717.55 92 718 91.775 718 91.5C718 91.225 718.45 91 719 91C719.55 91 720 90.775 720 90.5C720 90.225 720.675 90 721.5 90C722.325 90 723 89.775 723 89.5C723 89.225 723.45 89 724 89C724.55 89 725 88.775 725 88.5C725 88.225 725.675 88 726.5 88C727.325 88 728 87.775 728 87.5C728 87.225 728.45 87 729 87C729.55 87 730 86.775 730 86.5C730 86.225 730.675 86 731.5 86C732.325 86 733 85.775 733 85.5C733 85.225 733.675 85 734.5 85C735.325 85 736 84.775 736 84.5C736 84.225 736.45 84 737 84C737.55 84 738 83.775 738 83.5C738 83.225 738.675 83 739.5 83C740.325 83 741 82.775 741 82.5C741 82.225 741.675 82 742.5 82C743.325 82 744 81.775 744 81.5C744 81.225 744.45 81 745 81C745.55 81 746 80.775 746 80.5C746 80.225 746.9 80 748 80C749.1 80 750 79.775 750 79.5C750 79.225 750.9 79 752 79C753.1 79 754 78.775 754 78.5C754 78.225 754.9 78 756 78C757.1 78 758 77.775 758 77.5C758 77.225 759.125 77 760.5 77C761.875 77 763 76.775 763 76.5C763 76.225 763.9 76 765 76C766.1 76 767 75.775 767 75.5C767 75.2145 768.5 75 770.5 75C772.425 75 774 75.12 774 75.2665C774 75.831 770.5 79 769.877 79C769.516 79 768.896 79.45 768.5 80C768.104 80.55 767.428 81 767 81C766.572 81 765.896 81.45 765.5 82C765.104 82.55 764.469 83 764.09 83C763.712 83 762.771 83.675 762 84.5C761.229 85.325 760.288 86 759.91 86C759.531 86 758.896 86.45 758.5 87C758.104 87.55 757.428 88 757 88C756.572 88 755.896 88.45 755.5 89C755.104 89.55 754.428 90 754 90C753.572 90 752.896 90.45 752.5 91C752.104 91.55 751.469 92 751.09 92C750.712 92 749.771 92.675 749 93.5C748.229 94.325 747.288 95 746.91 95C746.531 95 745.896 95.45 745.5 96C745.104 96.55 744.428 97 744 97C743.572 97 742.896 97.45 742.5 98C742.104 98.55 741.428 99 741 99C740.572 99 739.896 99.45 739.5 100C739.104 100.55 738.469 101 738.09 101C737.712 101 736.771 101.675 736 102.5C735.229 103.325 734.288 104 733.91 104C733.531 104 732.896 104.45 732.5 105C732.104 105.55 731.428 106 731 106C730.572 106 729.896 106.45 729.5 107C729.104 107.55 728.428 108 728 108C727.572 108 726.896 108.45 726.5 109C726.104 109.55 725.469 110 725.09 110C724.712 110 723.771 110.675 723 111.5C722.229 112.325 721.288 113 720.91 113C720.531 113 719.896 113.45 719.5 114C719.104 114.55 718.428 115 718 115C717.572 115 716.896 115.45 716.5 116C716.104 116.55 715.428 117 715 117C714.572 117 713.896 117.45 713.5 118C713.104 118.55 712.469 119 712.09 119C711.712 119 710.771 119.675 710 120.5C709.229 121.325 708.288 122 707.91 122C707.531 122 706.896 122.45 706.5 123C706.104 123.55 705.428 124 705 124C704.572 124 703.896 124.45 703.5 125C703.104 125.55 702.484 126 702.123 126C701.211 126 698 129.298 698 130.234C698 130.795 698.536 131 700 131C701.1 131 702 130.775 702 130.5C702 130.225 702.45 130 703 130C703.55 130 704 129.775 704 129.5C704 129.225 704.401 129 704.89 129C705.379 129 706.104 128.55 706.5 128C706.896 127.45 707.572 127 708 127C708.428 127 709.104 126.55 709.5 126C709.896 125.45 710.621 125 711.11 125C711.599 125 712 124.775 712 124.5C712 124.225 712.401 124 712.89 124C713.379 124 714.104 123.55 714.5 123C714.896 122.45 715.572 122 716 122C716.428 122 717.104 121.55 717.5 121C717.896 120.45 718.572 120 719 120C719.428 120 720.104 119.55 720.5 119C720.896 118.45 721.572 118 722 118C722.428 118 723.104 117.55 723.5 117C723.896 116.45 724.572 116 725 116C725.428 116 726.104 115.55 726.5 115C726.896 114.45 727.572 114 728 114C728.428 114 729.104 113.55 729.5 113C729.896 112.45 730.572 112 731 112C731.428 112 732.104 111.55 732.5 111C732.896 110.45 733.531 110 733.91 110C734.288 110 735.229 109.325 736 108.5C736.771 107.675 737.712 107 738.09 107C738.469 107 739.104 106.55 739.5 106C739.896 105.45 740.572 105 741 105C741.428 105 742.104 104.55 742.5 104C742.896 103.45 743.531 103 743.91 103C744.288 103 745.229 102.325 746 101.5C746.771 100.675 747.671 100 748 100C748.329 100 749.229 99.325 750 98.5C750.771 97.675 751.671 97 752 97C752.329 97 753.229 96.325 754 95.5C754.771 94.675 755.671 94 756 94C756.329 94 757.229 93.325 758 92.5C758.771 91.675 759.666 91 759.99 91C760.313 91 761.443 90.1 762.5 89C763.557 87.9 764.682 87 765 87C765.318 87 766.443 86.1 767.5 85C768.557 83.9 769.687 83 770.01 83C770.334 83 771.229 82.325 772 81.5C772.771 80.675 773.671 80 774 80C774.329 80 775.229 79.325 776 78.5C776.771 77.675 777.712 77 778.09 77C778.469 77 779.104 76.55 779.5 76C779.896 75.45 780.621 75 781.11 75C781.599 75 782 74.775 782 74.5C782 74.1905 784.667 74 789 74C793.333 74 796 73.8095 796 73.5C796 73.225 796.45 73 797 73C797.55 73 798 73.1755 798 73.3895C798 73.604 797.55 74.1035 797 74.5C796.45 74.8965 796 75.517 796 75.8795C796 76.242 793.975 78.546 791.5 81C789.025 83.454 787 85.758 787 86.1205C787 86.483 786.55 87.1035 786 87.5C785.45 87.8965 785 88.621 785 89.1105C785 89.5995 784.775 90 784.5 90C784.225 90 784 90.45 784 91C784 91.55 784.225 92 784.5 92C784.775 92 785 92.45 785 93C785 93.6665 785.334 94 786 94C786.55 94 787 94.225 787 94.5C787 94.775 787.675 95 788.5 95C789.325 95 790 95.225 790 95.5C790 95.8195 794.333 96 802 96C809.667 96 814 95.8195 814 95.5C814 95.222 815.334 95 817 95C818.666 95 820 94.778 820 94.5C820 94.225 820.9 94 822 94C823.1 94 824 93.775 824 93.5C824 93.225 824.9 93 826 93C827.1 93 828 92.775 828 92.5C828 92.225 828.675 92 829.5 92C830.325 92 831 91.775 831 91.5C831 91.225 831.675 91 832.5 91C833.325 91 834 90.775 834 90.5C834 90.225 834.675 90 835.5 90C836.325 90 837 89.775 837 89.5C837 89.225 837.675 89 838.5 89C839.325 89 840 88.775 840 88.5C840 88.225 840.675 88 841.5 88C842.325 88 843 87.775 843 87.5C843 87.225 843.45 87 844 87C844.55 87 845 86.775 845 86.5C845 86.225 845.675 86 846.5 86C847.325 86 848 85.775 848 85.5C848 85.225 848.45 85 849 85C849.55 85 850 84.775 850 84.5C850 84.225 850.675 84 851.5 84C852.325 84 853 83.775 853 83.5C853 83.225 853.45 83 854 83C854.55 83 855 82.775 855 82.5C855 82.225 855.675 82 856.5 82C857.325 82 858 81.775 858 81.5C858 81.225 858.45 81 859 81C859.55 81 860 80.775 860 80.5C860 80.225 860.45 80 861 80C861.55 80 862 79.775 862 79.5C862 79.225 862.45 79 863 79C863.55 79 864 78.775 864 78.5C864 78.225 864.675 78 865.5 78C866.325 78 867 77.775 867 77.5C867 77.225 867.45 77 868 77C868.55 77 869 76.775 869 76.5C869 76.225 869.45 76 870 76C870.55 76 871 75.775 871 75.5C871 75.225 871.45 75 872 75C872.55 75 873 74.775 873 74.5C873 74.225 873.675 74 874.5 74C875.325 74 876 73.775 876 73.5C876 73.225 876.45 73 877 73C877.55 73 878 72.775 878 72.5C878 72.225 878.45 72 879 72C879.55 72 880 71.775 880 71.5C880 70.7575 881.467 70.895 882.286 71.7145C882.679 72.107 883 72.782 883 73.2145C883 73.6665 883.424 74 884 74C884.55 74 885 74.225 885 74.5C885 74.775 885.45 75 886 75C886.55 75 887 75.225 887 75.5C887 75.775 887.675 76 888.5 76C889.325 76 890 76.225 890 76.5C890 76.7855 891.5 77 893.5 77C895.5 77 897 77.2145 897 77.5C897 77.8135 900.167 78 905.5 78C910.833 78 914 78.1865 914 78.5C914 78.8275 923.833 79 942.5 79C961.167 79 971 79.1725 971 79.5C971 79.8285 983.095 80 1006.29 80C1043.11 80 1043 80.006 1043 78C1043 75.951 1044.51 76 981.786 76C942.262 76 922 75.8305 922 75.5C922 75.181 917.833 75 910.5 75C903.167 75 899 74.819 899 74.5C899 74.2085 897.333 74 895 74C892.667 74 891 73.7915 891 73.5C891 73.225 890.196 73 889.214 73C886.7 73 886 72.0825 886 68.7855C886 66.3335 885.881 66 885 66C884.45 66 884 66.225 884 66.5C884 66.775 883.325 67 882.5 67C881.675 67 881 67.225 881 67.5C881 67.775 880.55 68 880 68C879.45 68 879 68.225 879 68.5C879 68.775 878.55 69 878 69C877.45 69 877 69.225 877 69.5C877 69.775 876.55 70 876 70C875.45 70 875 70.225 875 70.5C875 70.775 874.55 71 874 71C873.45 71 873 71.225 873 71.5C873 71.775 872.325 72 871.5 72C870.675 72 870 72.225 870 72.5C870 72.775 869.55 73 869 73C868.45 73 868 73.225 868 73.5C868 73.775 867.55 74 867 74C866.45 74 866 74.225 866 74.5C866 74.775 865.55 75 865 75C864.45 75 864 75.225 864 75.5C864 75.775 863.325 76 862.5 76C861.675 76 861 76.225 861 76.5C861 76.775 860.55 77 860 77C859.45 77 859 77.225 859 77.5C859 77.775 858.55 78 858 78C857.45 78 857 78.225 857 78.5C857 78.775 856.325 79 855.5 79C854.675 79 854 79.225 854 79.5C854 79.775 853.55 80 853 80C852.45 80 852 80.225 852 80.5C852 80.775 851.55 81 851 81C850.45 81 850 81.225 850 81.5C850 81.775 849.325 82 848.5 82C847.675 82 847 82.225 847 82.5C847 82.775 846.55 83 846 83C845.45 83 845 83.225 845 83.5C845 83.775 844.325 84 843.5 84C842.675 84 842 84.225 842 84.5C842 84.775 841.325 85 840.5 85C839.675 85 839 85.225 839 85.5C839 85.775 838.55 86 838 86C837.45 86 837 86.225 837 86.5C837 86.775 836.325 87 835.5 87C834.675 87 834 87.225 834 87.5C834 87.775 833.325 88 832.5 88C831.675 88 831 88.225 831 88.5C831 88.775 830.1 89 829 89C827.9 89 827 89.225 827 89.5C827 89.775 826.325 90 825.5 90C824.675 90 824 90.225 824 90.5C824 90.775 822.875 91 821.5 91C820.125 91 819 91.225 819 91.5C819 91.778 817.666 92 816 92C814.334 92 813 92.222 813 92.5C813 92.818 809 93 802 93C795 93 791 92.818 791 92.5C791 92.225 790.325 92 789.5 92C788.218 92 788 91.811 788 90.7005C788 89.9015 788.577 88.8615 789.5 88C790.325 87.2295 791 86.3495 791 86.045C791 85.74 794.035 82.4555 797.745 78.7455L804.491 72H807.245C808.76 72 810 71.775 810 71.5C810 71.225 811.125 71 812.5 71C813.875 71 815 70.775 815 70.5C815 70.225 816.125 70 817.5 70C818.875 70 820 69.775 820 69.5C820 69.225 820.9 69 822 69C823.1 69 824 68.775 824 68.5C824 68.225 824.675 68 825.5 68C826.325 68 827 67.775 827 67.5C827 67.225 827.675 67 828.5 67C829.325 67 830 66.775 830 66.5C830 66.225 830.675 66 831.5 66C832.325 66 833 65.775 833 65.5C833 65.225 833.45 65 834 65C834.55 65 835 64.775 835 64.5C835 64.225 835.348 64 835.773 64C836.493 64 839 61.881 839 61.2725C839 61.1225 838.55 61 838 61C837.45 61 837 60.775 837 60.5C837 60.222 835.666 60 834 60C832.334 60 831 60.222 831 60.5C831 60.7855 829.5 61 827.5 61C825.5 61 824 61.2145 824 61.5C824 61.778 822.666 62 821 62C819.334 62 818 62.222 818 62.5C818 62.775 817.1 63 816 63C813.317 63 812.868 63.6095 823 53.5C827.95 48.561 832 44.1965 832 43.8015C832 43.4065 832.279 42.9905 832.62 42.8765C833.072 42.726 833.013 42.442 832.406 41.835C831.506 40.935 828 40.6685 828 41.5C828 41.775 827.599 42 827.11 42C826.621 42 825.896 42.45 825.5 43C825.104 43.55 824.379 44 823.89 44C823.401 44 823 44.225 823 44.5C823 44.775 822.599 45 822.11 45C821.621 45 820.896 45.45 820.5 46C820.104 46.55 819.379 47 818.89 47C818.401 47 818 47.225 818 47.5C818 47.775 817.599 48 817.11 48C816.621 48 815.896 48.45 815.5 49C815.104 49.55 814.379 50 813.89 50C813.401 50 813 50.225 813 50.5C813 50.775 812.599 51 812.11 51C811.621 51 810.896 51.45 810.5 52C810.104 52.55 809.379 53 808.89 53C808.401 53 808 53.225 808 53.5C808 53.775 807.599 54 807.11 54C806.621 54 805.896 54.45 805.5 55C805.104 55.55 804.428 56 804 56C803.572 56 802.896 56.45 802.5 57C802.104 57.55 801.428 58 801 58C800.572 58 799.896 58.45 799.5 59C799.104 59.55 798.398 60 797.932 60C797.465 60 796.983 60.281 796.86 60.625C796.73 60.9885 796.451 61.0645 796.193 60.8065C795.935 60.5485 796.012 60.2695 796.375 60.14C798.248 59.471 796.96 58 794.5 58C793.125 58 792 58.225 792 58.5C792 58.775 791.325 59 790.5 59C789.675 59 789 59.225 789 59.5C789 59.775 788.55 60 788 60C787.45 60 787 60.225 787 60.5C787 60.775 786.325 61 785.5 61C784.675 61 784 61.225 784 61.5C784 61.775 783.325 62 782.5 62C781.675 62 781 62.225 781 62.5C781 62.775 780.55 63 780 63C779.45 63 779 63.225 779 63.5C779 63.775 778.325 64 777.5 64C776.675 64 776 64.225 776 64.5C776 64.775 775.325 65 774.5 65C773.675 65 773 65.225 773 65.5C773 65.775 772.55 66 772 66C771.45 66 771 66.225 771 66.5C771 66.775 770.325 67 769.5 67C768.675 67 768 67.225 768 67.5C768 67.775 767.325 68 766.5 68C765.675 68 765 68.225 765 68.5C765 68.775 764.55 69 764 69C763.45 69 763 69.225 763 69.5C763 69.775 762.325 70 761.5 70C760.675 70 760 70.225 760 70.5C760 70.775 759.55 71 759 71C758.45 71 758 71.225 758 71.5C758 71.775 757.325 72 756.5 72C755.675 72 755 72.225 755 72.5C755 72.775 754.55 73 754 73C753.45 73 753 73.225 753 73.5C753 73.775 752.55 74 752 74C751.45 74 751 74.225 751 74.5C751 74.775 750.325 75 749.5 75C748.675 75 748 75.225 748 75.5C748 75.775 747.55 76 747 76C746.45 76 746 76.225 746 76.5C746 76.775 745.325 77 744.5 77C743.675 77 743 77.225 743 77.5C743 77.775 742.325 78 741.5 78C740.675 78 740 78.225 740 78.5C740 78.775 739.1 79 738 79C736.9 79 736 79.225 736 79.5C736 79.775 734.875 80 733.5 80C732.125 80 731 80.225 731 80.5C731 80.775 730.1 81 729 81C727.9 81 727 81.225 727 81.5C727 81.775 726.1 82 725 82C723.9 82 723 82.225 723 82.5C723 82.775 721.875 83 720.5 83C719.125 83 718 83.225 718 83.5C718 83.775 717.1 84 716 84C714.9 84 714 84.225 714 84.5C714 84.775 713.1 85 712 85C710.9 85 710 85.225 710 85.5C710 85.775 708.875 86 707.5 86C706.125 86 705 86.225 705 86.5C705 86.775 704.1 87 703 87C701.9 87 701 87.225 701 87.5C701 87.775 700.1 88 699 88C697.9 88 697 88.225 697 88.5C697 88.775 696.1 89 695 89C693.9 89 693 89.225 693 89.5C693 89.775 691.875 90 690.5 90C689.125 90 688 90.225 688 90.5C688 90.775 687.1 91 686 91C684.9 91 684 91.225 684 91.5C684 91.775 683.1 92 682 92C680.9 92 680 92.225 680 92.5C680 92.775 679.1 93 678 93C676.9 93 676 93.225 676 93.5C676 93.775 675.1 94 674 94C672.9 94 672 94.225 672 94.5C672 94.775 671.1 95 670 95C668.9 95 668 95.225 668 95.5C668 95.775 667.1 96 666 96C664.9 96 664 96.225 664 96.5C664 96.775 663.1 97 662 97C660.9 97 660 97.225 660 97.5C660 97.775 659.1 98 658 98C656.9 98 656 98.225 656 98.5C656 98.775 655.1 99 654 99C652.9 99 652 99.225 652 99.5C652 99.775 651.1 100 650 100C648.9 100 648 100.225 648 100.5C648 100.775 647.1 101 646 101C644.9 101 644 101.225 644 101.5C644 101.775 643.1 102 642 102C640.9 102 640 102.225 640 102.5C640 102.775 639.325 103 638.5 103C637.675 103 637 103.225 637 103.5C637 103.775 636.1 104 635 104C633.9 104 633 104.225 633 104.5C633 104.775 632.1 105 631 105C629.9 105 629 105.225 629 105.5C629 105.775 628.325 106 627.5 106C626.675 106 626 106.225 626 106.5C626 106.775 625.1 107 624 107C622.9 107 622 107.225 622 107.5C622 107.775 621.1 108 620 108C618.9 108 618 108.225 618 108.5C618 108.775 617.325 109 616.5 109C615.675 109 615 109.225 615 109.5C615 109.775 614.1 110 613 110C611.9 110 611 110.225 611 110.5C611 110.775 610.1 111 609 111C607.9 111 607 111.225 607 111.5C607 111.775 606.325 112 605.5 112C604.675 112 604 112.225 604 112.5C604 112.775 603.775 113 603.5 113C603.225 113 603 112.55 603 112C603 111.45 603.225 111 603.5 111C603.775 111 604 110.325 604 109.5C604 108.675 604.225 108 604.5 108C604.775 108 605 107.55 605 107C605 106.45 605.225 106 605.5 106C605.775 106 606 105.325 606 104.5C606 103.675 606.225 103 606.5 103C606.775 103 607 102.55 607 102C607 101.45 607.225 101 607.5 101C607.775 101 608 100.55 608 100C608 99.45 608.225 99 608.5 99C608.775 99 609 98.325 609 97.5C609 96.675 609.225 96 609.5 96C609.775 96 610 95.55 610 95C610 94.45 610.225 94 610.5 94C610.775 94 611 93.325 611 92.5C611 91.675 611.225 91 611.5 91C611.775 91 612 90.55 612 90C612 89.45 612.225 89 612.5 89C612.775 89 613 88.325 613 87.5C613 86.675 613.225 86 613.5 86C613.775 86 614 85.55 614 85C614 84.45 614.225 84 614.5 84C614.775 84 615 83.325 615 82.5C615 81.675 615.225 81 615.5 81C615.775 81 616 80.55 616 80C616 79.45 616.225 79 616.5 79C616.775 79 617 78.325 617 77.5C617 76.675 617.225 76 617.5 76C617.775 76 618 75.325 618 74.5C618 73.675 618.225 73 618.5 73C618.775 73 619 72.55 619 72C619 71.45 619.225 71 619.5 71C619.775 71 620 70.325 620 69.5C620 68.675 620.225 68 620.5 68C620.775 68 621 67.325 621 66.5C621 65.675 621.225 65 621.5 65C621.775 65 622 64.325 622 63.5C622 62.675 622.225 62 622.5 62C622.775 62 623 61.325 623 60.5C623 59.675 623.225 59 623.5 59C623.775 59 624 58.325 624 57.5C624 56.675 624.225 56 624.5 56C624.775 56 625 55.325 625 54.5C625 53.675 625.225 53 625.5 53C625.775 53 626 52.325 626 51.5C626 50.675 626.225 50 626.5 50C626.775 50 627 49.1 627 48C627 46.9 627.225 46 627.5 46C627.775 46 628 45.325 628 44.5C628 43.675 628.225 43 628.5 43C628.775 43 629 42.1 629 41C629 39.9 629.225 39 629.5 39C629.775 39 630 38.325 630 37.5C630 36.675 630.225 36 630.5 36C630.775 36 631 35.1 631 34C631 32.9 631.225 32 631.5 32C631.775 32 632 30.875 632 29.5C632 28.125 632.225 27 632.5 27C632.778 27 633 25.6665 633 24C633 22.3335 633.222 21 633.5 21C634.308 21 634.119 14.547 633.286 13.7145C632.39 12.8185 631.433 12.8305 630.625 13.748ZM825 47.2535C825 48.283 808.344 64 807.253 64C806.564 64 806 64.225 806 64.5C806 64.778 804.666 65 803 65C801.334 65 800 65.222 800 65.5C800 65.775 798.894 66 797.542 66C796.028 66 794.997 66.24 794.86 66.625C794.737 66.969 794.467 67.092 794.259 66.899C793.783 66.457 795.199 65 796.104 65C796.476 65 797.104 64.55 797.5 64C797.896 63.45 798.572 63 799 63C799.428 63 800.104 62.55 800.5 62C800.896 61.45 801.572 61 802 61C802.428 61 803.104 60.55 803.5 60C803.896 59.45 804.572 59 805 59C805.428 59 806.104 58.55 806.5 58C806.896 57.45 807.621 57 808.11 57C808.599 57 809 56.775 809 56.5C809 56.225 809.401 56 809.89 56C810.379 56 811.104 55.55 811.5 55C811.896 54.45 812.621 54 813.11 54C813.599 54 814 53.775 814 53.5C814 53.225 814.401 53 814.89 53C815.379 53 816.104 52.55 816.5 52C816.896 51.45 817.621 51 818.11 51C818.599 51 819 50.775 819 50.5C819 50.225 819.401 50 819.89 50C820.379 50 821.104 49.55 821.5 49C821.896 48.45 822.621 48 823.11 48C823.599 48 824 47.775 824 47.5C824 47.225 824.225 47 824.5 47C824.775 47 825 47.114 825 47.2535ZM122 56.5C122 56.775 121.775 57 121.5 57C121.225 57 121 57.675 121 58.5C121 59.325 120.775 60 120.5 60C120.225 60 120 60.675 120 61.5C120 62.325 119.775 63 119.5 63C119.225 63 119 63.675 119 64.5C119 65.325 118.775 66 118.5 66C118.225 66 118 66.675 118 67.5C118 68.325 117.775 69 117.5 69C117.225 69 117 69.45 117 70C117 70.55 116.775 71 116.5 71C116.225 71 116 71.675 116 72.5C116 73.325 115.775 74 115.5 74C115.225 74 115 74.45 115 75C115 75.55 114.775 76 114.5 76C114.225 76 114 76.45 114 77C114 77.55 113.775 78 113.5 78C113.225 78 113 78.45 113 79C113 79.55 112.775 80 112.5 80C112.225 80 112 80.45 112 81C112 81.55 111.775 82 111.5 82C111.225 82 111 82.45 111 83C111 83.55 110.775 84 110.5 84C110.225 84 110 84.45 110 85C110 85.55 109.775 86 109.5 86C109.225 86 109 86.45 109 87C109 87.55 108.775 88 108.5 88C108.225 88 108 88.45 108 89C108 89.55 107.775 90 107.5 90C107.225 90 107 90.45 107 91C107 91.55 106.775 92 106.5 92C106.225 92 106 92.45 106 93C106 93.55 105.775 94 105.5 94C105.225 94 105 94.4005 105 94.8895C105 95.379 104.55 96.1035 104 96.5C103.45 96.8965 103 97.621 103 98.1105C103 98.5995 102.775 99 102.5 99C102.225 99 102 99.4005 102 99.8895C102 100.379 101.55 101.104 101 101.5C100.45 101.896 100 102.572 100 103C100 103.428 99.55 104.104 99 104.5C98.45 104.896 98 105.572 98 106C98 106.428 97.55 107.104 97 107.5C96.45 107.896 96 108.531 96 108.91C96 109.289 95.325 110.229 94.5 111C93.675 111.771 93 112.655 93 112.964C93 113.808 88.641 118 87.763 118C87.3435 118 87 118.225 87 118.5C87 118.775 86.325 119 85.5 119H84V113C84 109.333 84.1945 107 84.5 107C84.775 107 85 106.55 85 106C85 105.45 85.225 105 85.5 105C85.775 105 86 104.55 86 104C86 103.45 86.225 103 86.5 103C86.775 103 87 102.55 87 102C87 101.45 87.225 101 87.5 101C87.775 101 88 100.599 88 100.11C88 99.621 88.45 98.8965 89 98.5C89.55 98.1035 90 97.379 90 96.8895C90 96.4005 90.225 96 90.5 96C90.775 96 91 95.5995 91 95.1105C91 94.621 91.45 93.8965 92 93.5C92.55 93.1035 93 92.379 93 91.8895C93 91.4005 93.225 91 93.5 91C93.775 91 94 90.5995 94 90.1105C94 89.621 94.45 88.8965 95 88.5C95.55 88.1035 96 87.469 96 87.09C96 86.7115 96.675 85.7705 97.5 85C98.325 84.2295 99 83.337 99 83.017C99 82.697 100.125 81.3395 101.5 80C102.875 78.6605 104 77.313 104 77.005C104 76.6965 105.35 75.1195 107 73.5C108.65 71.8805 110 70.3005 110 69.9885C110 69.6765 110.9 68.557 112 67.5C113.1 66.443 114 65.318 114 65C114 64.682 114.9 63.557 116 62.5C117.1 61.443 118 60.3295 118 60.025C118 59.4175 121.023 56.0895 121.625 56.0345C121.831 56.0155 122 56.225 122 56.5ZM789 63.5C789 63.775 788.648 64 788.218 64C787.787 64 786.339 65.125 785 66.5C783.327 68.2175 782.163 69 781.282 69C780.577 69 780 69.225 780 69.5C780 69.775 778.875 70 777.5 70C776.125 70 775 70.225 775 70.5C775 70.775 774.1 71 773 71C771.9 71 771 71.225 771 71.5C771 71.775 769.875 72 768.5 72C767.125 72 766 72.225 766 72.5C766 72.775 765.55 73 765 73C764.45 73 764 72.775 764 72.5C764 72.225 764.45 72 765 72C765.55 72 766 71.775 766 71.5C766 71.225 766.675 71 767.5 71C768.325 71 769 70.775 769 70.5C769 70.225 769.45 70 770 70C770.55 70 771 69.775 771 69.5C771 69.225 771.675 69 772.5 69C773.325 69 774 68.775 774 68.5C774 68.225 774.675 68 775.5 68C776.325 68 777 67.775 777 67.5C777 67.225 777.45 67 778 67C778.55 67 779 66.775 779 66.5C779 66.225 779.675 66 780.5 66C781.325 66 782 65.775 782 65.5C782 65.225 782.675 65 783.5 65C784.325 65 785 64.775 785 64.5C785 64.225 785.45 64 786 64C786.55 64 787 63.775 787 63.5C787 63.225 787.45 63 788 63C788.55 63 789 63.225 789 63.5ZM826 64.5C826 64.775 825.775 65 825.5 65C825.225 65 825 64.775 825 64.5C825 64.225 825.225 64 825.5 64C825.775 64 826 64.225 826 64.5ZM823 65.5C823 65.775 822.1 66 821 66C819.9 66 819 66.225 819 66.5C819 66.775 817.875 67 816.5 67C815.125 67 814 67.225 814 67.5C814 67.775 812.894 68 811.542 68C810.028 68 808.997 68.24 808.86 68.625C808.737 68.969 808.467 69.092 808.259 68.899C807.534 68.2255 809.441 67 811.214 67C812.196 67 813 66.775 813 66.5C813 66.222 814.334 66 816 66C817.666 66 819 65.778 819 65.5C819 65.225 819.9 65 821 65C822.1 65 823 65.225 823 65.5ZM803 68.2855C803 68.443 802.679 68.893 802.286 69.2855C801.464 70.108 796 70.2945 796 69.5C796 69.225 797.125 69 798.5 69C799.875 69 801 68.775 801 68.5C801 68.225 801.45 68 802 68C802.55 68 803 68.1285 803 68.2855ZM220 85.5C220 85.775 219.55 86 219 86C218.45 86 218 85.775 218 85.5C218 85.225 218.45 85 219 85C219.55 85 220 85.225 220 85.5ZM217 86.5C217 86.775 216.55 87 216 87C215.45 87 215 87.225 215 87.5C215 87.775 214.325 88 213.5 88C212.675 88 212 88.225 212 88.5C212 88.775 211.55 89 211 89C210.45 89 210 89.225 210 89.5C210 89.775 209.325 90 208.5 90C207.675 90 207 90.225 207 90.5C207 90.775 206.55 91 206 91C205.45 91 205 91.225 205 91.5C205 91.775 204.325 92 203.5 92C202.675 92 202 92.225 202 92.5C202 92.775 201.55 93 201 93C200.45 93 200 93.225 200 93.5C200 93.775 199.55 94 199 94C198.45 94 198 94.225 198 94.5C198 94.775 197.325 95 196.5 95C195.675 95 195 95.225 195 95.5C195 95.775 194.55 96 194 96C193.45 96 193 96.225 193 96.5C193 96.775 192.55 97 192 97C191.45 97 191 97.225 191 97.5C191 97.775 190.55 98 190 98C189.45 98 189 98.225 189 98.5C189 98.775 188.55 99 188 99C187.45 99 187 99.225 187 99.5C187 99.775 186.55 100 186 100C185.45 100 185 100.225 185 100.5C185 100.775 184.55 101 184 101C183.45 101 183 101.225 183 101.5C183 101.775 182.55 102 182 102C181.45 102 181 102.225 181 102.5C181 102.775 180.55 103 180 103C179.45 103 179 103.225 179 103.5C179 103.775 178.55 104 178 104C177.45 104 177 104.225 177 104.5C177 104.775 176.55 105 176 105C175.45 105 175 105.225 175 105.5C175 105.775 174.55 106 174 106C173.45 106 173 106.225 173 106.5C173 106.775 172.6 107 172.111 107C171.621 107 170.896 107.45 170.5 108C170.104 108.55 169.379 109 168.889 109C168.4 109 168 109.225 168 109.5C168 109.775 167.6 110 167.111 110C166.621 110 165.896 110.45 165.5 111C165.104 111.55 164.428 112 164 112C163.572 112 162.896 112.45 162.5 113C162.104 113.55 161.488 114 161.132 114C159.909 114 153 121.393 153 122.701C153 123.37 152.719 124.048 152.375 124.208C151.875 124.441 151.875 124.559 152.375 124.792C152.719 124.952 153 125.69 153 126.432C153 127.206 153.425 128.086 154 128.5C154.55 128.896 155 129.396 155 129.611C155 129.825 154.55 130 154 130C153.45 130 153 130.225 153 130.5C153 130.824 146.667 131 135 131C117.333 131 117 130.982 117 130C117 129.374 117.333 129 117.889 129C118.379 129 119.104 128.55 119.5 128C119.896 127.45 120.621 127 121.111 127C121.6 127 122 126.775 122 126.5C122 126.225 122.4 126 122.889 126C123.379 126 124.104 125.55 124.5 125C124.896 124.45 125.621 124 126.111 124C126.6 124 127 123.775 127 123.5C127 123.225 127.45 123 128 123C128.55 123 129 122.775 129 122.5C129 122.225 129.45 122 130 122C130.55 122 131 121.775 131 121.5C131 121.225 131.45 121 132 121C132.55 121 133 120.775 133 120.5C133 120.225 133.45 120 134 120C134.55 120 135 119.775 135 119.5C135 119.225 135.45 119 136 119C136.55 119 137 118.775 137 118.5C137 118.225 137.45 118 138 118C138.55 118 139 117.775 139 117.5C139 117.225 139.45 117 140 117C140.55 117 141 116.775 141 116.5C141 116.225 141.45 116 142 116C142.55 116 143 115.775 143 115.5C143 115.225 143.45 115 144 115C144.55 115 145 114.775 145 114.5C145 114.225 145.45 114 146 114C146.55 114 147 113.775 147 113.5C147 113.225 147.45 113 148 113C148.55 113 149 112.775 149 112.5C149 112.225 149.675 112 150.5 112C151.325 112 152 111.775 152 111.5C152 111.225 152.45 111 153 111C153.55 111 154 110.775 154 110.5C154 110.225 154.45 110 155 110C155.55 110 156 109.775 156 109.5C156 109.225 156.675 109 157.5 109C158.325 109 159 108.775 159 108.5C159 108.225 159.45 108 160 108C160.55 108 161 107.775 161 107.5C161 107.225 161.45 107 162 107C162.55 107 163 106.775 163 106.5C163 106.225 163.675 106 164.5 106C165.325 106 166 105.775 166 105.5C166 105.225 166.45 105 167 105C167.55 105 168 104.775 168 104.5C168 104.225 168.675 104 169.5 104C170.325 104 171 103.775 171 103.5C171 103.225 171.45 103 172 103C172.55 103 173 102.775 173 102.5C173 102.225 173.675 102 174.5 102C175.325 102 176 101.775 176 101.5C176 101.225 176.45 101 177 101C177.55 101 178 100.775 178 100.5C178 100.225 178.675 100 179.5 100C180.325 100 181 99.775 181 99.5C181 99.225 181.45 99 182 99C182.55 99 183 98.775 183 98.5C183 98.225 183.675 98 184.5 98C185.325 98 186 97.775 186 97.5C186 97.225 186.45 97 187 97C187.55 97 188 96.775 188 96.5C188 96.225 188.675 96 189.5 96C190.325 96 191 95.775 191 95.5C191 95.225 191.675 95 192.5 95C193.325 95 194 94.775 194 94.5C194 94.225 194.45 94 195 94C195.55 94 196 93.775 196 93.5C196 93.225 196.675 93 197.5 93C198.325 93 199 92.775 199 92.5C199 92.225 199.45 92 200 92C200.55 92 201 91.775 201 91.5C201 91.225 201.675 91 202.5 91C203.325 91 204 90.775 204 90.5C204 90.225 204.675 90 205.5 90C206.325 90 207 89.775 207 89.5C207 89.225 207.45 89 208 89C208.55 89 209 88.775 209 88.5C209 88.225 209.675 88 210.5 88C211.325 88 212 87.775 212 87.5C212 87.225 212.675 87 213.5 87C214.325 87 215 86.775 215 86.5C215 86.225 215.45 86 216 86C216.55 86 217 86.225 217 86.5ZM279 106.5C279 106.775 278.775 107 278.5 107C278.225 107 278 106.775 278 106.5C278 106.225 278.225 106 278.5 106C278.775 106 279 106.225 279 106.5ZM149 136.5C149 136.775 148.55 137 148 137C147.45 137 147 137.225 147 137.5C147 137.775 146.325 138 145.5 138C144.675 138 144 138.225 144 138.5C144 138.775 143.325 139 142.5 139C141.675 139 141 139.225 141 139.5C141 139.775 140.325 140 139.5 140C138.675 140 138 140.225 138 140.5C138 140.775 137.325 141 136.5 141C135.675 141 135 141.225 135 141.5C135 141.775 134.325 142 133.5 142C132.675 142 132 142.225 132 142.5C132 142.775 131.325 143 130.5 143C129.675 143 129 143.225 129 143.5C129 143.775 128.325 144 127.5 144C126.675 144 126 144.225 126 144.5C126 144.775 125.325 145 124.5 145C123.675 145 123 145.225 123 145.5C123 145.775 122.1 146 121 146C119.9 146 119 146.225 119 146.5C119 146.775 118.325 147 117.5 147C116.675 147 116 147.225 116 147.5C116 147.775 115.325 148 114.5 148C113.675 148 113 148.225 113 148.5C113 148.775 112.1 149 111 149C109.9 149 109 149.225 109 149.5C109 149.775 108.325 150 107.5 150C106.675 150 106 150.225 106 150.5C106 150.775 105.325 151 104.5 151C103.675 151 103 151.225 103 151.5C103 151.775 102.1 152 101 152C99.9 152 99 152.225 99 152.5C99 152.775 98.1 153 97 153C95.9 153 95 153.225 95 153.5C95 153.775 94.325 154 93.5 154C92.675 154 92 154.225 92 154.5C92 154.775 91.1 155 90 155C88.9 155 88 155.225 88 155.5C88 155.775 87.1 156 86 156C84.9 156 84 156.225 84 156.5C84 156.775 83.325 157 82.5 157C81.675 157 81 157.225 81 157.5C81 157.775 80.1 158 79 158C77.9 158 77 158.225 77 158.5C77 158.775 76.1 159 75 159C73.9 159 73 159.225 73 159.5C73 159.775 72.1 160 71 160C69.9 160 69 160.225 69 160.5C69 160.775 68.1 161 67 161C65.9 161 65 161.225 65 161.5C65 161.775 63.875 162 62.5 162C61.125 162 60 162.225 60 162.5C60 162.775 59.1 163 58 163C56.9 163 56 163.225 56 163.5C56 163.775 54.875 164 53.5 164C52.125 164 51 164.225 51 164.5C51 164.775 49.875 165 48.5 165C47.125 165 46 165.225 46 165.5C46 165.775 44.875 166 43.5 166C42.125 166 41 166.225 41 166.5C41 166.778 39.6665 167 38 167C36.3335 167 35 167.222 35 167.5C35 167.785 33.5 168 31.5 168C29.5 168 28 167.785 28 167.5C28 167.225 28.675 167 29.5 167C30.325 167 31 166.775 31 166.5C31 166.225 31.9 166 33 166C34.1 166 35 165.775 35 165.5C35 165.225 35.675 165 36.5 165C37.325 165 38 164.775 38 164.5C38 164.225 38.675 164 39.5 164C40.325 164 41 163.775 41 163.5C41 163.225 41.675 163 42.5 163C43.325 163 44 162.775 44 162.5C44 162.225 44.9 162 46 162C47.1 162 48 161.775 48 161.5C48 161.225 48.675 161 49.5 161C50.325 161 51 160.775 51 160.5C51 160.225 51.9 160 53 160C54.1 160 55 159.775 55 159.5C55 159.225 55.9 159 57 159C58.1 159 59 158.775 59 158.5C59 158.225 59.675 158 60.5 158C61.325 158 62 157.775 62 157.5C62 157.225 62.9 157 64 157C65.1 157 66 156.775 66 156.5C66 156.225 66.9 156 68 156C69.1 156 70 155.775 70 155.5C70 155.225 70.9 155 72 155C73.1 155 74 154.775 74 154.5C74 154.225 74.9 154 76 154C77.1 154 78 153.775 78 153.5C78 153.225 78.9 153 80 153C81.1 153 82 152.775 82 152.5C82 152.225 82.9 152 84 152C85.1 152 86 151.775 86 151.5C86 151.225 86.9 151 88 151C89.1 151 90 150.775 90 150.5C90 150.225 90.9 150 92 150C93.1 150 94 149.775 94 149.5C94 149.225 94.9 149 96 149C97.1 149 98 148.775 98 148.5C98 148.225 99.125 148 100.5 148C101.875 148 103 147.775 103 147.5C103 147.225 103.9 147 105 147C106.1 147 107 146.775 107 146.5C107 146.225 107.9 146 109 146C110.1 146 111 145.775 111 145.5C111 145.225 111.9 145 113 145C114.1 145 115 144.775 115 144.5C115 144.225 116.125 144 117.5 144C118.875 144 120 143.775 120 143.5C120 143.225 121.125 143 122.5 143C123.875 143 125 142.775 125 142.5C125 142.225 126.125 142 127.5 142C128.875 142 130 141.775 130 141.5C130 141.225 130.9 141 132 141C133.1 141 134 140.775 134 140.5C134 140.225 134.675 140 135.5 140C136.325 140 137 139.775 137 139.5C137 139.225 137.675 139 138.5 139C139.325 139 140 138.775 140 138.5C140 138.225 140.675 138 141.5 138C142.325 138 143 137.775 143 137.5C143 137.225 143.675 137 144.5 137C145.325 137 146 136.775 146 136.5C146 136.225 146.675 136 147.5 136C148.325 136 149 136.225 149 136.5ZM27 168.5C27 168.775 26.55 169 26 169C25.45 169 25 168.775 25 168.5C25 168.225 25.45 168 26 168C26.55 168 27 168.225 27 168.5Z" fill="black"/>
</svg>
