<svg width="32" height="32" viewBox="0 0 342 342" fill="none" xmlns="http://www.w3.org/2000/svg">
<path fill-rule="evenodd" clip-rule="evenodd" d="M52 323.832V148.087H120.502V268.378H133.55C139.012 268.378 144.256 268.079 149.282 267.48L173.492 321.487C163.366 323.05 152.692 323.832 141.472 323.832H52ZM181.611 320.042C188.71 318.606 195.524 316.763 202.052 314.512C220.381 308.299 236.07 298.979 249.118 286.552C262.166 273.815 272.263 257.815 279.408 238.554C286.553 219.293 290.126 196.614 290.126 170.518C290.126 144.422 286.553 121.899 279.408 102.948C272.263 83.9973 262.011 68.464 248.652 56.348C235.293 43.9213 219.294 34.7567 200.654 28.854C182.014 22.9513 161.044 20 137.744 20H52V71.3029L120.502 130.627V75.454H133.55C146.598 75.454 158.403 77.0073 168.966 80.114C179.529 83.2207 188.538 88.502 195.994 95.958C203.45 103.103 209.197 112.889 213.236 125.316C217.585 137.432 219.76 152.499 219.76 170.518C219.76 188.847 217.585 204.225 213.236 216.652C209.197 229.079 203.45 239.175 195.994 246.942C188.538 254.398 179.529 259.835 168.966 263.252C165.287 264.442 161.456 265.425 157.476 266.201L181.611 320.042Z" fill="white"/>
</svg>
